<svg width="20" height="20" viewBox="0 0 20 20" fill="none" xmlns="http://www.w3.org/2000/svg">
<path d="M18.7465 0H1.24977C0.562707 0 0 0.562707 0 1.24977V18.7502C0 19.4373 0.562707 20 1.24977 20H18.7465C19.4335 20 19.9963 19.4373 19.9963 18.7502V1.24977C19.9963 0.562707 19.4335 0 18.7465 0ZM18.7465 18.7503H1.24977V1.24979H18.7465V18.7503ZM4.37418 6.88154H5.62395V8.13131C5.62395 8.47624 5.90389 8.75619 6.24883 8.75619C6.59376 8.75619 6.87371 8.47624 6.87371 8.13131V6.88154H8.12348C8.46841 6.88154 8.74836 6.60159 8.74836 6.25666C8.74836 5.91172 8.46841 5.63178 8.12348 5.63178H6.87371V4.38201C6.87371 4.03708 6.59376 3.75713 6.24883 3.75713C5.90389 3.75713 5.62395 4.03708 5.62395 4.38201V5.63178H4.37418C4.02925 5.63178 3.7493 5.91172 3.7493 6.25666C3.7493 6.60159 4.02925 6.88154 4.37418 6.88154ZM8.4581 11.5456C8.21409 11.3016 7.81854 11.3016 7.57452 11.5456L6.24883 12.871L4.92316 11.5456C4.67914 11.3016 4.28359 11.3016 4.03926 11.5456C3.79525 11.7896 3.79525 12.1855 4.03926 12.4295L5.36464 13.7549L4.03926 15.0803C3.79525 15.3243 3.79525 15.7202 4.03926 15.9642C4.28328 16.2082 4.67883 16.2082 4.92316 15.9642L6.24883 14.6391L7.57452 15.9645C7.81854 16.2085 8.21409 16.2085 8.4581 15.9645C8.70212 15.7205 8.70212 15.3246 8.4581 15.0806L7.13273 13.7552L8.4581 12.4298C8.70212 12.1855 8.70212 11.79 8.4581 11.5456ZM11.8728 6.88152H15.6221C15.967 6.88152 16.247 6.60157 16.247 6.25664C16.247 5.9117 15.967 5.63176 15.6221 5.63176H11.8728C11.5278 5.63176 11.2479 5.9117 11.2479 6.25664C11.2479 6.60157 11.5278 6.88152 11.8728 6.88152ZM11.8728 13.1304H15.6221C15.967 13.1304 16.247 12.8504 16.247 12.5055C16.247 12.1605 15.967 11.8806 15.6221 11.8806H11.8728C11.5278 11.8806 11.2479 12.1605 11.2479 12.5055C11.2479 12.8504 11.5278 13.1304 11.8728 13.1304ZM11.8728 15.6299H15.6221C15.967 15.6299 16.247 15.3499 16.247 15.005C16.247 14.6601 15.967 14.3801 15.6221 14.3801H11.8728C11.5278 14.3801 11.2479 14.6601 11.2479 15.005C11.2479 15.3499 11.5278 15.6299 11.8728 15.6299Z" fill="#6F7C98"/>
</svg>
