<svg width="18" height="18" viewBox="0 0 18 18" fill="none" xmlns="http://www.w3.org/2000/svg">
<path d="M0.5 16.3636V1.63636C0.5 1.00877 1.00877 0.5 1.63636 0.5H16.3636C16.9913 0.5 17.5 1.00876 17.5 1.63636V16.3636C17.5 16.9913 16.9913 17.5 16.3636 17.5H1.63636C1.00876 17.5 0.5 16.9913 0.5 16.3636Z" stroke="#6F7C98"/>
<path d="M11 4.90918H13H15" stroke="#6F7C98" stroke-linecap="round" stroke-linejoin="round"/>
<path d="M11 11.8633H13H15" stroke="#6F7C98" stroke-linecap="round" stroke-linejoin="round"/>
<path d="M11 14.3184H13H15" stroke="#6F7C98" stroke-linecap="round" stroke-linejoin="round"/>
<path d="M3 5H5M5 5H7M5 5V3M5 5V7" stroke="#6F7C98" stroke-linecap="round" stroke-linejoin="round"/>
<path d="M3 15L4.99999 13M4.99999 13L7 11M4.99999 13L3 11M4.99999 13L7 15" stroke="#6F7C98" stroke-linecap="round" stroke-linejoin="round"/>
</svg>
