<svg width="18" height="18" viewBox="0 0 18 18" fill="none" xmlns="http://www.w3.org/2000/svg">
<g clip-path="url(#clip0_7279_26)">
<path d="M1.5 0.5H6.5C7.05228 0.5 7.5 0.947715 7.5 1.5V6.5C7.5 7.05228 7.05228 7.5 6.5 7.5H1.5C0.947715 7.5 0.5 7.05228 0.5 6.5V1.5C0.5 0.947715 0.947715 0.5 1.5 0.5Z" stroke="#6F7C98" stroke-linecap="round" stroke-linejoin="round"/>
<path d="M11.5 0.5H16.5C17.0523 0.5 17.5 0.947715 17.5 1.5V6.5C17.5 7.05228 17.0523 7.5 16.5 7.5H11.5C10.9477 7.5 10.5 7.05228 10.5 6.5V1.5C10.5 0.947715 10.9477 0.5 11.5 0.5Z" stroke="#6F7C98" stroke-linecap="round" stroke-linejoin="round"/>
<path d="M11.5 10.5H16.5C17.0523 10.5 17.5 10.9477 17.5 11.5V16.5C17.5 17.0523 17.0523 17.5 16.5 17.5H11.5C10.9477 17.5 10.5 17.0523 10.5 16.5V11.5C10.5 10.9477 10.9477 10.5 11.5 10.5Z" stroke="#6F7C98" stroke-linecap="round" stroke-linejoin="round"/>
<path d="M1.5 10.5H6.5C7.05228 10.5 7.5 10.9477 7.5 11.5V16.5C7.5 17.0523 7.05228 17.5 6.5 17.5H1.5C0.947715 17.5 0.5 17.0523 0.5 16.5V11.5C0.5 10.9477 0.947715 10.5 1.5 10.5Z" stroke="#6F7C98" stroke-linecap="round" stroke-linejoin="round"/>
</g>
<defs>
<clipPath id="clip0_7279_26">
<rect width="18" height="18" fill="white"/>
</clipPath>
</defs>
</svg>
