<svg width="22" height="14" viewBox="0 0 22 14" fill="none" xmlns="http://www.w3.org/2000/svg">
<path d="M21.1331 6.78204C21.1021 6.71236 20.3554 5.05596 18.6885 3.38887C17.1427 1.8429 14.4828 0 10.5897 0C6.69668 0 4.0368 1.8429 2.491 3.38887C0.82408 5.05596 0.0773844 6.71236 0.0463601 6.78204C0.0157782 6.8509 -1.54472e-05 6.92541 1.1337e-08 7.00075C1.54699e-05 7.0761 0.0158397 7.1506 0.0464498 7.21945C0.0773863 7.28912 0.824168 8.94517 2.49109 10.6119C4.03688 12.1575 6.69668 14 10.5897 14C14.4828 14 17.1426 12.1575 18.6884 10.6119C20.3553 8.94518 21.1021 7.28913 21.133 7.21945C21.1636 7.1506 21.1795 7.0761 21.1795 7.00075C21.1795 6.92541 21.1637 6.8509 21.1331 6.78204V6.78204ZM10.5897 12.9231C7.77377 12.9231 5.31459 11.8986 3.28029 9.87802C2.42734 9.03077 1.70559 8.06098 1.13888 7.0007C1.70558 5.94016 2.42736 4.97011 3.28037 4.1226C5.31459 2.10161 7.77386 1.07692 10.5897 1.07692C13.4056 1.07692 15.8649 2.10162 17.8991 4.1226C18.7521 4.97004 19.4739 5.94003 20.0405 7.00053C19.4691 8.09542 16.6061 12.9231 10.5897 12.9231V12.9231ZM10.5897 2.87258C9.77326 2.87258 8.97512 3.1147 8.29624 3.56831C7.61736 4.02192 7.08823 4.66666 6.77578 5.42099C6.46332 6.17532 6.38157 7.00537 6.54086 7.80616C6.70015 8.60695 7.09332 9.34253 7.67066 9.91987C8.248 10.4972 8.98358 10.8904 9.78437 11.0497C10.5852 11.209 11.4152 11.1272 12.1695 10.8148C12.9239 10.5023 13.5686 9.97318 14.0222 9.2943C14.4758 8.61542 14.7179 7.81727 14.7179 7.00079C14.7167 5.9063 14.2814 4.857 13.5075 4.08308C12.7335 3.30916 11.6842 2.87383 10.5897 2.87258V2.87258ZM10.5897 10.0521C9.98626 10.0521 9.39632 9.87312 8.89454 9.53784C8.39276 9.20256 8.00167 8.72601 7.77073 8.16846C7.53978 7.61091 7.47936 6.9974 7.59709 6.40551C7.71482 5.81362 8.00543 5.26994 8.43216 4.84321C8.85889 4.41648 9.40258 4.12587 9.99447 4.00814C10.5864 3.8904 11.1999 3.95083 11.7574 4.18177C12.315 4.41272 12.7915 4.80381 13.1268 5.30559C13.4621 5.80737 13.641 6.3973 13.641 7.00079C13.6401 7.80976 13.3184 8.58534 12.7463 9.15737C12.1743 9.7294 11.3987 10.0512 10.5897 10.0521V10.0521Z" fill="#6F7C98"/>
</svg>
