<svg width="19" height="12" viewBox="0 0 19 12" fill="none" xmlns="http://www.w3.org/2000/svg">
<path d="M18.1141 5.81318C18.0875 5.75346 17.4475 4.33368 16.0187 2.90475C14.6937 1.57963 12.4138 0 9.07692 0C5.74001 0 3.46011 1.57963 2.13514 2.90475C0.706354 4.33368 0.0663295 5.75346 0.0397372 5.81318C0.0135241 5.8722 -1.32405e-05 5.93606 9.71744e-09 6.00065C1.32599e-05 6.06523 0.0135769 6.12909 0.0398142 6.1881C0.0663311 6.24782 0.70643 7.66729 2.13522 9.09593C3.46019 10.4207 5.74001 12 9.07692 12C12.4138 12 14.6937 10.4207 16.0186 9.09593C17.4474 7.66729 18.0875 6.24782 18.114 6.1881C18.1403 6.12909 18.1538 6.06523 18.1538 6.00065C18.1539 5.93607 18.1403 5.8722 18.1141 5.81318V5.81318ZM9.07692 11.0769C6.66324 11.0769 4.55536 10.1988 2.81167 8.46687C2.08057 7.74066 1.46193 6.90941 0.976186 6.0006C1.46193 5.09156 2.08059 4.26009 2.81175 3.53365C4.55536 1.80138 6.66331 0.923077 9.07692 0.923077C11.4905 0.923077 13.5985 1.80138 15.3421 3.53365C16.0732 4.26003 16.6919 5.09146 17.1776 6.00045C16.6878 6.93893 14.2338 11.0769 9.07692 11.0769V11.0769ZM9.07692 2.46221C8.37708 2.46221 7.69296 2.66974 7.11106 3.05855C6.52916 3.44736 6.07563 4 5.80781 4.64657C5.53999 5.29313 5.46992 6.0046 5.60645 6.691C5.74298 7.37739 6.07999 8.00788 6.57485 8.50275C7.06972 8.99761 7.70021 9.33461 8.3866 9.47115C9.073 9.60768 9.78446 9.53761 10.431 9.26979C11.0776 9.00197 11.6302 8.54844 12.019 7.96654C12.4079 7.38464 12.6154 6.70052 12.6154 6.00068C12.6143 5.06255 12.2412 4.16314 11.5778 3.49978C10.9145 2.83642 10.0151 2.46328 9.07692 2.46221V2.46221ZM9.07692 8.61606C8.55965 8.61606 8.05399 8.46267 7.62389 8.17529C7.1938 7.88791 6.85857 7.47944 6.66062 7.00154C6.46267 6.52364 6.41088 5.99777 6.51179 5.49044C6.61271 4.98311 6.8618 4.51709 7.22757 4.15132C7.59333 3.78555 8.05935 3.53646 8.56669 3.43555C9.07402 3.33463 9.59989 3.38642 10.0778 3.58438C10.5557 3.78233 10.9642 4.11755 11.2515 4.54765C11.5389 4.97774 11.6923 5.4834 11.6923 6.00068C11.6915 6.69408 11.4157 7.35887 10.9254 7.84918C10.4351 8.33949 9.77033 8.61529 9.07692 8.61606V8.61606Z" fill="#6F7C98"/>
</svg>
