<svg width="230" height="40" viewBox="0 0 230 40" fill="none" xmlns="http://www.w3.org/2000/svg">
<path d="M50.12 17L56.08 2.9H59.82L65.78 17H61.62L60.6 14.5H55.2L54.2 17H50.12ZM56.34 11.48H59.48L57.92 7.5L56.34 11.48ZM72.6916 17.26C70.6382 17.26 69.0449 16.7267 67.9116 15.66C66.7782 14.5933 66.2116 12.9933 66.2116 10.86V3H70.1516V10.78C70.1516 11.7667 70.3782 12.5133 70.8316 13.02C71.2982 13.5133 71.9316 13.76 72.7316 13.76C73.5316 13.76 74.1582 13.52 74.6116 13.04C75.0782 12.56 75.3116 11.84 75.3116 10.88V3H79.2516V10.76C79.2516 12.9467 78.6716 14.58 77.5116 15.66C76.3649 16.7267 74.7582 17.26 72.6916 17.26ZM84.7678 17V6.4H80.5678V3H92.8478V6.4H88.6478V17H84.7678ZM106.165 15.16C104.725 16.5733 102.932 17.28 100.785 17.28C98.6388 17.28 96.8455 16.58 95.4055 15.18C93.9788 13.7667 93.2655 12.04 93.2655 10C93.2655 7.97333 93.9855 6.25333 95.4255 4.84C96.8788 3.42667 98.6788 2.72 100.825 2.72C102.972 2.72 104.759 3.42667 106.185 4.84C107.625 6.24 108.345 7.96 108.345 10C108.345 12.0267 107.619 13.7467 106.165 15.16ZM100.825 13.78C101.879 13.78 102.732 13.4133 103.385 12.68C104.052 11.9467 104.385 11.0533 104.385 10C104.385 8.96 104.045 8.07333 103.365 7.34C102.685 6.59333 101.825 6.22 100.785 6.22C99.7455 6.22 98.8921 6.58667 98.2255 7.32C97.5721 8.05333 97.2455 8.94667 97.2455 10C97.2455 11.04 97.5788 11.9333 98.2455 12.68C98.9255 13.4133 99.7855 13.78 100.825 13.78ZM110.167 17V3H114.047V8.68L118.867 3H123.467L118.167 9.02L123.647 17H118.987L115.467 11.8L114.047 13.38V17H110.167ZM123.065 17L129.025 2.9H132.765L138.725 17H134.565L133.545 14.5H128.145L127.145 17H123.065ZM129.285 11.48H132.425L130.865 7.5L129.285 11.48ZM141.507 17V6.4H137.307V3H149.587V6.4H145.387V17H141.507ZM163.577 17.28C161.377 17.28 159.557 16.6 158.117 15.24C156.677 13.8667 155.957 12.12 155.957 10C155.957 7.94667 156.67 6.22 158.097 4.82C159.537 3.42 161.337 2.72 163.497 2.72C165.71 2.72 167.604 3.4 169.177 4.76L166.897 7.5C165.844 6.62 164.717 6.18 163.517 6.18C162.504 6.18 161.65 6.55333 160.957 7.3C160.277 8.04667 159.937 8.96667 159.937 10.06C159.937 11.1933 160.29 12.1267 160.997 12.86C161.717 13.58 162.63 13.94 163.737 13.94C164.644 13.94 165.39 13.7467 165.977 13.36V11.66H163.217V8.82H169.657V15.12C167.91 16.56 165.884 17.28 163.577 17.28ZM171.608 17V3H178.228C180.268 3 181.788 3.5 182.788 4.5C183.615 5.32667 184.028 6.43333 184.028 7.82C184.028 9.87333 183.068 11.3067 181.148 12.12L184.488 17H180.008L177.188 12.76H175.488V17H171.608ZM175.488 9.72H178.048C178.701 9.72 179.208 9.57333 179.568 9.28C179.941 8.97333 180.128 8.55333 180.128 8.02C180.128 7.47333 179.941 7.06 179.568 6.78C179.208 6.5 178.695 6.36 178.028 6.36H175.488V9.72ZM198.203 15.16C196.763 16.5733 194.97 17.28 192.823 17.28C190.676 17.28 188.883 16.58 187.443 15.18C186.016 13.7667 185.303 12.04 185.303 10C185.303 7.97333 186.023 6.25333 187.463 4.84C188.916 3.42667 190.716 2.72 192.863 2.72C195.01 2.72 196.796 3.42667 198.223 4.84C199.663 6.24 200.383 7.96 200.383 10C200.383 12.0267 199.656 13.7467 198.203 15.16ZM192.863 13.78C193.916 13.78 194.77 13.4133 195.423 12.68C196.09 11.9467 196.423 11.0533 196.423 10C196.423 8.96 196.083 8.07333 195.403 7.34C194.723 6.59333 193.863 6.22 192.823 6.22C191.783 6.22 190.93 6.58667 190.263 7.32C189.61 8.05333 189.283 8.94667 189.283 10C189.283 11.04 189.616 11.9333 190.283 12.68C190.963 13.4133 191.823 13.78 192.863 13.78ZM208.504 17.26C206.451 17.26 204.857 16.7267 203.724 15.66C202.591 14.5933 202.024 12.9933 202.024 10.86V3H205.964V10.78C205.964 11.7667 206.191 12.5133 206.644 13.02C207.111 13.5133 207.744 13.76 208.544 13.76C209.344 13.76 209.971 13.52 210.424 13.04C210.891 12.56 211.124 11.84 211.124 10.88V3H215.064V10.76C215.064 12.9467 214.484 14.58 213.324 15.66C212.177 16.7267 210.571 17.26 208.504 17.26ZM217.16 17V3H223.16C224.947 3 226.36 3.44 227.4 4.32C228.454 5.18667 228.98 6.4 228.98 7.96C228.98 9.56 228.427 10.8 227.32 11.68C226.214 12.56 224.76 13 222.96 13H221.04V17H217.16ZM221.04 9.96H222.88C223.574 9.96 224.114 9.79333 224.5 9.46C224.9 9.12667 225.1 8.67333 225.1 8.1C225.1 7.5 224.9 7.04667 224.5 6.74C224.114 6.42 223.567 6.26 222.86 6.26H221.04V9.96Z" fill="black"/>
<rect x="50" y="22" width="180" height="15" rx="7.5" fill="#FFA500"/>
<path d="M58.015 35.119C57.573 35.119 57.1353 35.0237 56.702 34.833L56.923 34.274C57.261 34.4387 57.638 34.521 58.054 34.521C58.4007 34.521 58.6997 34.404 58.951 34.17C59.2023 33.936 59.4493 33.533 59.692 32.961L56.507 26.37H57.248L60.004 32.298L62.396 26.37H63.098L60.225 33.234C59.939 33.91 59.6183 34.391 59.263 34.677C58.9163 34.9717 58.5003 35.119 58.015 35.119ZM66.1256 33V26.942H63.6426V26.37H69.2456V26.942H66.7626V33H66.1256ZM70.4573 33V26.37H71.0943V32.155L75.5923 26.37H76.2293V33H75.5923V27.215L71.0943 33H70.4573ZM77.8268 33.104C77.5841 33.104 77.3415 33.0693 77.0988 33L77.2158 32.415C77.4325 32.4757 77.6015 32.506 77.7228 32.506C77.8961 32.506 78.0348 32.4887 78.1388 32.454C78.2515 32.4107 78.3728 32.3283 78.5028 32.207C78.6328 32.0857 78.7368 31.895 78.8148 31.635C78.8928 31.375 78.9665 31.037 79.0358 30.621C79.1138 30.205 79.1701 29.672 79.2048 29.022C79.2395 28.372 79.2568 27.605 79.2568 26.721V26.37H83.7678V33H83.1308V26.942H79.8678V27.124C79.8678 28.1987 79.8331 29.1087 79.7638 29.854C79.6945 30.5993 79.6078 31.1843 79.5038 31.609C79.3998 32.025 79.2525 32.35 79.0618 32.584C78.8711 32.8093 78.6848 32.9523 78.5028 33.013C78.3295 33.0737 78.1041 33.104 77.8268 33.104ZM85.8004 33V26.37H86.4374V32.155L90.9354 26.37H91.5724V33H90.9354V27.215L86.4374 33H85.8004ZM95.6788 33.13C94.6822 33.13 93.7808 32.8007 92.9748 32.142L93.3648 31.622C94.0755 32.2287 94.8382 32.532 95.6528 32.532C96.1208 32.532 96.5368 32.402 96.9008 32.142C97.2735 31.8733 97.4598 31.5483 97.4598 31.167C97.4598 30.777 97.2952 30.4693 96.9658 30.244C96.6365 30.01 96.1858 29.893 95.6138 29.893H94.7038V29.321H95.6268C96.1035 29.321 96.4978 29.204 96.8098 28.97C97.1218 28.736 97.2778 28.4197 97.2778 28.021C97.2778 27.6743 97.1262 27.3927 96.8228 27.176C96.5195 26.9593 96.1382 26.851 95.6788 26.851C94.8728 26.851 94.1838 27.0763 93.6118 27.527L93.2348 27.02C93.9282 26.5087 94.7472 26.253 95.6918 26.253C96.3852 26.253 96.9398 26.4177 97.3558 26.747C97.7718 27.0763 97.9798 27.501 97.9798 28.021C97.9798 28.749 97.6245 29.2603 96.9138 29.555C97.7372 29.841 98.1488 30.3827 98.1488 31.18C98.1488 31.7173 97.9148 32.1767 97.4468 32.558C96.9875 32.9393 96.3982 33.13 95.6788 33.13ZM101.724 33.156C100.996 33.156 100.385 32.974 99.8908 32.61C99.4055 32.2373 99.1628 31.7173 99.1628 31.05C99.1628 30.374 99.4272 29.8453 99.9558 29.464C100.485 29.0827 101.187 28.892 102.062 28.892C102.807 28.892 103.54 28.9873 104.259 29.178V28.892C104.259 28.2333 104.068 27.7307 103.687 27.384C103.306 27.0373 102.768 26.864 102.075 26.864C101.382 26.864 100.688 27.0417 99.9948 27.397L99.7608 26.838C100.584 26.4567 101.369 26.266 102.114 26.266C103.024 26.266 103.722 26.5087 104.207 26.994C104.658 27.4447 104.883 28.0687 104.883 28.866V33H104.259V31.895C103.661 32.7357 102.816 33.156 101.724 33.156ZM101.763 32.558C102.456 32.558 103.046 32.3673 103.531 31.986C104.025 31.596 104.272 31.1063 104.272 30.517V29.763C103.492 29.5637 102.742 29.464 102.023 29.464C101.33 29.464 100.792 29.607 100.411 29.893C100.038 30.1703 99.8518 30.5517 99.8518 31.037C99.8518 31.5137 100.025 31.8863 100.372 32.155C100.719 32.4237 101.182 32.558 101.763 32.558ZM112.712 34.872V33H106.784V26.37H107.421V32.428H111.659V26.37H112.296V32.428H113.362L113.232 34.872H112.712ZM114.569 33V26.37H115.206V32.155L119.704 26.37H120.341V33H119.704V27.215L115.206 33H114.569ZM121.835 33L123.928 30.361C123.373 30.257 122.914 30.0273 122.55 29.672C122.195 29.3167 122.017 28.8747 122.017 28.346C122.017 27.7567 122.234 27.28 122.667 26.916C123.1 26.552 123.694 26.37 124.448 26.37H127.412V33H126.775V30.452H124.591L122.615 33H121.835ZM124.565 29.88H126.775V26.942H124.539C123.967 26.942 123.516 27.072 123.187 27.332C122.866 27.592 122.706 27.943 122.706 28.385C122.706 28.8357 122.879 29.1997 123.226 29.477C123.573 29.7457 124.019 29.88 124.565 29.88ZM132.95 33V26.37H133.587V30.621L137.695 26.37H138.54L135.641 29.308L138.631 33H137.825L135.199 29.763L133.587 31.388V33H132.95ZM141.799 33.156C141.071 33.156 140.46 32.974 139.966 32.61C139.481 32.2373 139.238 31.7173 139.238 31.05C139.238 30.374 139.502 29.8453 140.031 29.464C140.56 29.0827 141.262 28.892 142.137 28.892C142.882 28.892 143.615 28.9873 144.334 29.178V28.892C144.334 28.2333 144.143 27.7307 143.762 27.384C143.381 27.0373 142.843 26.864 142.15 26.864C141.457 26.864 140.763 27.0417 140.07 27.397L139.836 26.838C140.659 26.4567 141.444 26.266 142.189 26.266C143.099 26.266 143.797 26.5087 144.282 26.994C144.733 27.4447 144.958 28.0687 144.958 28.866V33H144.334V31.895C143.736 32.7357 142.891 33.156 141.799 33.156ZM141.838 32.558C142.531 32.558 143.121 32.3673 143.606 31.986C144.1 31.596 144.347 31.1063 144.347 30.517V29.763C143.567 29.5637 142.817 29.464 142.098 29.464C141.405 29.464 140.867 29.607 140.486 29.893C140.113 30.1703 139.927 30.5517 139.927 31.037C139.927 31.5137 140.1 31.8863 140.447 32.155C140.794 32.4237 141.257 32.558 141.838 32.558ZM148.523 33V26.942H146.04V26.37H151.643V26.942H149.16V33H148.523ZM154.869 33.156C154.141 33.156 153.53 32.974 153.036 32.61C152.551 32.2373 152.308 31.7173 152.308 31.05C152.308 30.374 152.573 29.8453 153.101 29.464C153.63 29.0827 154.332 28.892 155.207 28.892C155.953 28.892 156.685 28.9873 157.404 29.178V28.892C157.404 28.2333 157.214 27.7307 156.832 27.384C156.451 27.0373 155.914 26.864 155.22 26.864C154.527 26.864 153.834 27.0417 153.14 27.397L152.906 26.838C153.73 26.4567 154.514 26.266 155.259 26.266C156.169 26.266 156.867 26.5087 157.352 26.994C157.803 27.4447 158.028 28.0687 158.028 28.866V33H157.404V31.895C156.806 32.7357 155.961 33.156 154.869 33.156ZM154.908 32.558C155.602 32.558 156.191 32.3673 156.676 31.986C157.17 31.596 157.417 31.1063 157.417 30.517V29.763C156.637 29.5637 155.888 29.464 155.168 29.464C154.475 29.464 153.938 29.607 153.556 29.893C153.184 30.1703 152.997 30.5517 152.997 31.037C152.997 31.5137 153.171 31.8863 153.517 32.155C153.864 32.4237 154.328 32.558 154.908 32.558ZM159.5 33.104C159.258 33.104 159.015 33.0693 158.772 33L158.889 32.415C159.106 32.4757 159.275 32.506 159.396 32.506C159.57 32.506 159.708 32.4887 159.812 32.454C159.925 32.4107 160.046 32.3283 160.176 32.207C160.306 32.0857 160.41 31.895 160.488 31.635C160.566 31.375 160.64 31.037 160.709 30.621C160.787 30.205 160.844 29.672 160.878 29.022C160.913 28.372 160.93 27.605 160.93 26.721V26.37H165.441V33H164.804V26.942H161.541V27.124C161.541 28.1987 161.507 29.1087 161.437 29.854C161.368 30.5993 161.281 31.1843 161.177 31.609C161.073 32.025 160.926 32.35 160.735 32.584C160.545 32.8093 160.358 32.9523 160.176 33.013C160.003 33.0737 159.778 33.104 159.5 33.104ZM167.474 33V26.37H168.111V32.155L172.609 26.37H173.246V33H172.609V27.215L168.111 33H167.474ZM177.352 33.13C176.356 33.13 175.454 32.8007 174.648 32.142L175.038 31.622C175.749 32.2287 176.512 32.532 177.326 32.532C177.794 32.532 178.21 32.402 178.574 32.142C178.947 31.8733 179.133 31.5483 179.133 31.167C179.133 30.777 178.969 30.4693 178.639 30.244C178.31 30.01 177.859 29.893 177.287 29.893H176.377V29.321H177.3C177.777 29.321 178.171 29.204 178.483 28.97C178.795 28.736 178.951 28.4197 178.951 28.021C178.951 27.6743 178.8 27.3927 178.496 27.176C178.193 26.9593 177.812 26.851 177.352 26.851C176.546 26.851 175.857 27.0763 175.285 27.527L174.908 27.02C175.602 26.5087 176.421 26.253 177.365 26.253C178.059 26.253 178.613 26.4177 179.029 26.747C179.445 27.0763 179.653 27.501 179.653 28.021C179.653 28.749 179.298 29.2603 178.587 29.555C179.411 29.841 179.822 30.3827 179.822 31.18C179.822 31.7173 179.588 32.1767 179.12 32.558C178.661 32.9393 178.072 33.13 177.352 33.13ZM183.397 33.156C182.669 33.156 182.058 32.974 181.564 32.61C181.079 32.2373 180.836 31.7173 180.836 31.05C180.836 30.374 181.101 29.8453 181.629 29.464C182.158 29.0827 182.86 28.892 183.735 28.892C184.481 28.892 185.213 28.9873 185.932 29.178V28.892C185.932 28.2333 185.742 27.7307 185.36 27.384C184.979 27.0373 184.442 26.864 183.748 26.864C183.055 26.864 182.362 27.0417 181.668 27.397L181.434 26.838C182.258 26.4567 183.042 26.266 183.787 26.266C184.697 26.266 185.395 26.5087 185.88 26.994C186.331 27.4447 186.556 28.0687 186.556 28.866V33H185.932V31.895C185.334 32.7357 184.489 33.156 183.397 33.156ZM183.436 32.558C184.13 32.558 184.719 32.3673 185.204 31.986C185.698 31.596 185.945 31.1063 185.945 30.517V29.763C185.165 29.5637 184.416 29.464 183.696 29.464C183.003 29.464 182.466 29.607 182.084 29.893C181.712 30.1703 181.525 30.5517 181.525 31.037C181.525 31.5137 181.699 31.8863 182.045 32.155C182.392 32.4237 182.856 32.558 183.436 32.558ZM190.121 33V26.942H187.638V26.37H193.241V26.942H190.758V33H190.121ZM199.822 32.129C199.172 32.8137 198.362 33.156 197.391 33.156C196.42 33.156 195.61 32.818 194.96 32.142C194.319 31.4573 193.998 30.6383 193.998 29.685C193.998 28.7403 194.323 27.9257 194.973 27.241C195.632 26.5563 196.446 26.214 197.417 26.214C198.388 26.214 199.194 26.5563 199.835 27.241C200.485 27.917 200.81 28.7317 200.81 29.685C200.81 30.6297 200.481 31.4443 199.822 32.129ZM197.417 32.558C198.154 32.558 198.786 32.2763 199.315 31.713C199.852 31.1497 200.121 30.4737 200.121 29.685C200.121 28.8877 199.852 28.2117 199.315 27.657C198.786 27.0937 198.145 26.812 197.391 26.812C196.646 26.812 196.009 27.0937 195.48 27.657C194.951 28.2117 194.687 28.8877 194.687 29.685C194.687 30.4823 194.951 31.1627 195.48 31.726C196.009 32.2807 196.654 32.558 197.417 32.558ZM202.378 35.08V26.37H203.015V27.852C203.735 26.76 204.645 26.214 205.745 26.214C206.595 26.214 207.344 26.5347 207.994 27.176C208.644 27.8087 208.969 28.645 208.969 29.685C208.969 30.7163 208.644 31.5527 207.994 32.194C207.344 32.8353 206.595 33.156 205.745 33.156C204.619 33.156 203.709 32.6273 203.015 31.57V35.08H202.378ZM205.68 32.545C206.426 32.545 207.045 32.2893 207.539 31.778C208.033 31.258 208.28 30.5603 208.28 29.685C208.28 28.8357 208.025 28.1467 207.513 27.618C207.011 27.0893 206.4 26.825 205.68 26.825C204.961 26.825 204.328 27.098 203.782 27.644C203.245 28.1813 202.976 28.866 202.976 29.698C202.976 30.5213 203.245 31.2017 203.782 31.739C204.328 32.2763 204.961 32.545 205.68 32.545ZM215.939 32.129C215.289 32.8137 214.479 33.156 213.508 33.156C212.538 33.156 211.727 32.818 211.077 32.142C210.436 31.4573 210.115 30.6383 210.115 29.685C210.115 28.7403 210.44 27.9257 211.09 27.241C211.749 26.5563 212.564 26.214 213.534 26.214C214.505 26.214 215.311 26.5563 215.952 27.241C216.602 27.917 216.927 28.7317 216.927 29.685C216.927 30.6297 216.598 31.4443 215.939 32.129ZM213.534 32.558C214.271 32.558 214.904 32.2763 215.432 31.713C215.97 31.1497 216.238 30.4737 216.238 29.685C216.238 28.8877 215.97 28.2117 215.432 27.657C214.904 27.0937 214.262 26.812 213.508 26.812C212.763 26.812 212.126 27.0937 211.597 27.657C211.069 28.2117 210.804 28.8877 210.804 29.685C210.804 30.4823 211.069 31.1627 211.597 31.726C212.126 32.2807 212.772 32.558 213.534 32.558ZM218.496 33V26.37H221.525C222.175 26.37 222.695 26.5217 223.085 26.825C223.475 27.1197 223.67 27.5183 223.67 28.021C223.67 28.723 223.297 29.23 222.552 29.542C222.994 29.6547 223.354 29.8497 223.631 30.127C223.908 30.4043 224.047 30.7597 224.047 31.193C224.047 31.739 223.83 32.1767 223.397 32.506C222.964 32.8353 222.387 33 221.668 33H218.496ZM219.133 32.428H221.59C222.145 32.428 222.582 32.311 222.903 32.077C223.224 31.8343 223.384 31.5093 223.384 31.102C223.384 30.712 223.215 30.4087 222.877 30.192C222.548 29.9753 222.067 29.867 221.434 29.867H219.133V32.428ZM219.133 29.334H221.434C221.911 29.334 222.292 29.2257 222.578 29.009C222.873 28.7837 223.02 28.4673 223.02 28.06C223.02 27.722 222.886 27.4533 222.617 27.254C222.348 27.046 221.967 26.942 221.473 26.942H219.133V29.334Z" fill="black"/>
<path d="M15.4937 0.835083L20.5233 7.8746L15.9366 15.466C15.4651 16.2416 14.4935 16.4802 13.7504 15.988L9.00658 12.8709C8.26356 12.3788 8.03494 11.3646 8.50647 10.5891L13.9219 1.62554L14.6792 0.984225L15.4937 0.835083Z" fill="#CA9E00"/>
<path d="M31.1831 29.3811L39.542 28.3967L39.8278 27.5913L39.6849 26.5772L35.0125 17.1663C34.6124 16.3609 33.655 16.0328 32.8692 16.4653L27.8824 19.1648C27.1108 19.5824 26.7964 20.5816 27.2108 21.4019L31.1831 29.3811Z" fill="#CA9E00"/>
<path d="M8.20647 28.3819L5.19153 36.5698L5.7345 37.2111L6.64899 37.5392H16.7941C17.6657 37.5392 18.3801 36.7935 18.3801 35.8837V30.0224C18.3801 29.1127 17.6657 28.3669 16.7941 28.3669H8.20647V28.3819Z" fill="#CA9E00"/>
<path d="M28.968 7.09918L30.4541 6.20432C31.0542 5.84638 31.7829 6.38329 31.6401 7.06935L29.6825 16.5995C29.5825 17.0768 29.1109 17.3602 28.668 17.211L19.7661 14.2729C19.1088 14.0641 19.0087 13.1245 19.6089 12.7666L21.395 11.6778L15.9367 1.86428C15.8366 1.68531 15.6937 1.53617 15.5223 1.41685C14.9364 1.044 14.1648 1.22297 13.7933 1.83445C14.4792 0.700969 15.6795 0 16.9797 0H22.8524C24.1956 0 25.453 0.745712 26.1246 1.96868L28.968 7.09918Z" fill="#FFA500"/>
<path d="M13.8366 25.6376L11.4646 16.2118C11.3503 15.7345 10.8645 15.481 10.4215 15.645L1.64817 18.9858C1.00517 19.2394 0.948019 20.1641 1.54815 20.5071L3.06276 21.3423L0.433622 26.5921C-0.195085 27.8449 -0.13793 29.3363 0.590799 30.5295L3.73434 35.7196C4.4202 36.868 5.63475 37.5541 6.93503 37.5541C6.23488 37.5541 5.67761 36.9724 5.67761 36.2416C5.67761 36.0179 5.73477 35.8091 5.8205 35.6301L10.8787 25.5779L12.7077 26.5772C13.3079 26.9202 14.008 26.3236 13.8366 25.6376Z" fill="#FFA500"/>
<path d="M39.5702 26.3537C39.8846 26.995 39.656 27.7855 39.0273 28.1285C38.8415 28.2329 38.6415 28.2776 38.4414 28.2776L27.5676 28.218L27.5819 26.0554C27.5819 25.3395 26.7675 24.9518 26.2531 25.4439L19.323 31.9764C18.9801 32.3045 18.9801 32.8712 19.323 33.1993L26.2102 39.7765C26.7246 40.2687 27.5391 39.8958 27.5391 39.165V37.3753L33.226 37.4051C34.5691 37.4051 35.8266 36.6743 36.5124 35.4514L39.4845 30.1568C40.1418 28.9935 40.1704 27.5617 39.5702 26.3537Z" fill="#FFA500"/>
</svg>
