<svg width="15" height="15" viewBox="0 0 15 15" fill="none" xmlns="http://www.w3.org/2000/svg">
<g clip-path="url(#clip0_6950_195)">
<path d="M12.5781 6.25C12.5781 10.625 7.1875 14.375 7.1875 14.375C7.1875 14.375 1.79688 10.625 1.79688 6.25C1.79688 4.75816 2.36481 3.32742 3.37575 2.27252C4.38669 1.21763 5.75782 0.625 7.1875 0.625C8.61718 0.625 9.98831 1.21763 10.9992 2.27252C12.0102 3.32742 12.5781 4.75816 12.5781 6.25Z" stroke="#808080" stroke-width="1.3" stroke-linecap="round" stroke-linejoin="round"/>
<path d="M7.1875 8.125C8.17989 8.125 8.98438 7.28553 8.98438 6.25C8.98438 5.21447 8.17989 4.375 7.1875 4.375C6.19511 4.375 5.39062 5.21447 5.39062 6.25C5.39062 7.28553 6.19511 8.125 7.1875 8.125Z" stroke="#808080" stroke-width="1.3" stroke-linecap="round" stroke-linejoin="round"/>
</g>
<defs>
<clipPath id="clip0_6950_195">
<rect width="14.375" height="15" fill="white"/>
</clipPath>
</defs>
</svg>
