<svg width="70" height="70" viewBox="0 0 70 70" fill="none" xmlns="http://www.w3.org/2000/svg">
<path d="M50.3059 27.3472C50.3136 14.6553 40.028 4.36857 27.3372 4.37622C14.7383 4.36966 4.50625 14.524 4.38266 27.1L4.375 27.1076V27.3406C4.375 37.3167 10.733 45.8075 19.6262 48.9804C22.0303 49.8379 24.6378 50.3093 27.3448 50.3083C27.4225 50.3104 27.5002 50.3104 27.5767 50.3104L27.5855 50.3017C40.1592 50.177 50.3136 39.945 50.3059 27.3472Z" fill="white"/>
<path d="M27.337 4.37622C26.7814 4.37732 26.2356 4.41997 25.6898 4.45826C37.6128 5.29497 47.03 15.2087 47.0213 27.3472C47.03 39.5381 37.5133 49.4847 25.5039 50.2273C26.112 50.2765 26.7234 50.3072 27.3447 50.3061C27.4223 50.3083 27.5 50.3083 27.5766 50.3083L27.5853 50.2995C40.1591 50.1759 50.3134 39.9439 50.3058 27.3461C50.3134 14.6564 40.0278 4.36966 27.337 4.37622Z" fill="#F5FAFF"/>
<path d="M50.3239 53.4122L44.2973 47.3856L44.2864 47.3747C44.8431 46.9153 45.3801 46.4231 45.904 45.897C46.429 45.3829 46.9223 44.847 47.3817 44.2903L53.4083 50.3168L50.3239 53.4122Z" fill="#444444"/>
<path d="M53.4175 50.3167L54.9597 48.7646L67.6253 61.4412C69.3315 63.1486 69.3326 65.9147 67.6253 67.6198C65.919 69.337 63.1519 69.337 61.4347 67.6209L48.769 54.9553L50.3233 53.412L53.4065 50.3178L53.4175 50.3167Z" fill="#00BA2D"/>
<path d="M53.4177 50.3171L53.4067 50.3181L52.6389 51.0881L65.3035 63.7636C66.5995 65.0619 66.9047 66.9694 66.231 68.5608C66.7374 68.3453 67.2131 68.0369 67.6255 67.6213C69.3328 65.915 69.3317 63.1489 67.6255 61.4427L54.9599 48.7661L53.4177 50.3171Z" fill="#02D15C"/>
<path d="M43.75 26.2555V43.4033V43.4164C43.6953 43.4711 43.6406 43.5258 43.5848 43.5783C41.6719 45.4924 39.4953 47.0028 37.1875 48.0966V26.2544L43.75 26.2555Z" fill="#FCC600"/>
<path d="M37.1874 26.2544V48.0966C28.655 52.1424 18.1561 50.633 11.1014 43.5794C11.0457 43.5247 10.991 43.47 10.9363 43.4153V43.4044V26.2544L18.5925 26.2555L25.155 26.2544L29.5311 26.2555H36.0925L37.1874 26.2544Z" fill="#FFCE54"/>
<path d="M8.7825 8.77829C19.0298 -1.47015 35.6548 -1.47124 45.9033 8.77829C55.6267 18.5116 56.1298 33.9783 47.3798 44.2913C46.9205 44.848 46.4283 45.3839 45.9022 45.898C45.3783 46.423 44.8412 46.9163 44.2845 47.3756C33.9803 56.1377 18.5038 55.6345 8.78141 45.8991C-1.46703 35.6506 -1.46703 19.0377 8.7825 8.77829ZM43.7497 43.4042C52.5533 34.4267 52.4986 20.0111 43.5845 11.108C34.6169 2.12829 20.0689 2.12829 11.1012 11.1069C2.18719 20.0111 2.1325 34.4256 10.9372 43.4053V43.4163C10.993 43.472 11.0477 43.5267 11.1023 43.5803C18.1559 50.6339 28.6559 52.1433 37.1883 48.0975C39.495 47.0038 41.6727 45.4933 43.5856 43.5792C43.6403 43.5256 43.695 43.4709 43.7497 43.4163V43.4042Z" fill="#E6E9ED"/>
<path d="M27.3438 51.4041C20.9158 51.4041 14.8739 48.9016 10.3283 44.357C5.78375 39.8136 3.28125 33.7706 3.28125 27.3438C3.28125 20.9158 5.78375 14.8728 10.3283 10.3294C14.8739 5.78375 20.9158 3.28125 27.3438 3.28125C33.7717 3.28125 39.8136 5.78484 44.3592 10.3294C53.7403 19.7116 53.7403 34.9759 44.3592 44.357C39.8136 48.9016 33.7717 51.4041 27.3438 51.4041ZM27.3438 5.46875C21.4998 5.46875 16.007 7.74484 11.8748 11.8759C7.74375 16.0059 5.46875 21.4998 5.46875 27.3438C5.46875 33.1877 7.74375 38.6805 11.8748 42.8105C16.0059 46.9416 21.4998 49.2166 27.3438 49.2166C33.1877 49.2166 38.6805 46.9416 42.8127 42.8105C51.3417 34.2814 51.3417 20.405 42.8127 11.8759C38.6805 7.74375 33.1877 5.46875 27.3438 5.46875Z" fill="#3A3847"/>
<path d="M27.3438 54.6853C20.0397 54.6853 13.1731 51.8416 8.00844 46.678C2.84375 41.5144 0.00109375 34.6467 0 27.3427C0 20.0386 2.84484 13.172 8.00844 8.00844C13.1742 2.84375 20.0408 0 27.3438 0C34.6478 0 41.5144 2.84375 46.6791 8.00844C57.3398 18.6692 57.3398 36.0161 46.6791 46.6769C41.5133 51.8416 34.6467 54.6853 27.3438 54.6853ZM27.3438 2.1875C20.6248 2.1875 14.3073 4.80375 9.555 9.555C4.80484 14.3062 2.1875 20.6227 2.1875 27.3427C2.18859 34.0627 4.80484 40.3802 9.555 45.1314C14.3052 49.8827 20.6237 52.4978 27.3438 52.4978C34.0627 52.4978 40.3802 49.8816 45.1325 45.1314C54.9402 35.3227 54.9402 19.3637 45.1325 9.55609C40.3813 4.80375 34.0638 2.1875 27.3438 2.1875Z" fill="black"/>
<path d="M50.3188 54.506C50.0388 54.506 49.7588 54.3988 49.5456 54.1855L43.5212 48.16C43.0935 47.7324 43.0935 47.0411 43.5212 46.6135C43.9488 46.1858 44.6401 46.1858 45.0677 46.6135L51.0921 52.6389C51.5198 53.0666 51.5198 53.7578 51.0921 54.1855C50.8788 54.3988 50.5988 54.506 50.3188 54.506Z" fill="black"/>
<path d="M53.4123 51.4127C53.1323 51.4127 52.8523 51.3055 52.639 51.0922L46.6081 45.0602C46.1804 44.6325 46.1804 43.9413 46.6081 43.5136C47.0358 43.086 47.727 43.086 48.1547 43.5136L54.1856 49.5456C54.6133 49.9733 54.6133 50.6646 54.1856 51.0922C53.9723 51.3055 53.6923 51.4127 53.4123 51.4127Z" fill="black"/>
<path d="M48.7725 56.0527C48.4925 56.0527 48.2125 55.9455 47.9992 55.7323C47.5716 55.3046 47.5716 54.6133 47.9992 54.1857L54.1855 47.9973C54.6131 47.5696 55.3044 47.5696 55.732 47.9973C56.1597 48.4249 56.1597 49.1162 55.732 49.5438L49.5458 55.7323C49.3325 55.9455 49.0525 56.0527 48.7725 56.0527Z" fill="black"/>
<path d="M61.4381 68.7181C61.1581 68.7181 60.8781 68.611 60.6648 68.3977L47.9992 55.7321C47.5716 55.3044 47.5716 54.6131 47.9992 54.1855C48.4269 53.7578 49.1181 53.7578 49.5458 54.1855L62.2114 66.8511C62.6391 67.2788 62.6391 67.97 62.2114 68.3977C61.9981 68.611 61.7181 68.7181 61.4381 68.7181Z" fill="black"/>
<path d="M67.6241 62.5332C67.3441 62.5332 67.0641 62.426 66.8509 62.2127L54.1852 49.5438C53.7576 49.1162 53.7576 48.4249 54.1852 47.9973C54.6129 47.5696 55.3042 47.5696 55.7318 47.9973L68.3974 60.6662C68.8251 61.0938 68.8251 61.7851 68.3974 62.2127C68.1841 62.426 67.9041 62.5332 67.6241 62.5332Z" fill="black"/>
<path d="M64.5325 70C63.0712 70 61.6975 69.4302 60.665 68.3977C60.2373 67.97 60.2373 67.2788 60.665 66.8511C61.0926 66.4235 61.7839 66.4235 62.2115 66.8511C63.4497 68.0903 65.612 68.0925 66.8501 66.8511C67.4703 66.232 67.8126 65.4074 67.8126 64.5302C67.8126 63.6541 67.4714 62.8316 66.8523 62.2136C66.4236 61.786 66.4236 61.0947 66.8501 60.6671C67.2778 60.2372 67.9712 60.2394 68.3967 60.6649C69.4303 61.6963 70.0001 63.0689 70.0001 64.5302C70.0001 65.9914 69.4303 67.3652 68.3978 68.3977C67.3664 69.4302 65.9937 70 64.5325 70Z" fill="black"/>
<path d="M10.6817 42.7263C10.091 42.7263 9.61353 42.2945 9.61353 41.7604V26.6016C9.61353 26.0684 10.091 25.6357 10.6817 25.6357C11.2724 25.6357 11.7498 26.0684 11.7498 26.6016V41.7604C11.7498 42.2945 11.2724 42.7263 10.6817 42.7263Z" fill="#3A3847"/>
<path d="M43.7945 43.7944C43.2038 43.7944 42.7263 43.3357 42.7263 42.7682V26.6619C42.7263 26.0955 43.2038 25.6357 43.7945 25.6357C44.3852 25.6357 44.8626 26.0955 44.8626 26.6619V42.7682C44.8626 43.3357 44.3852 43.7944 43.7945 43.7944Z" fill="#3A3847"/>
<path d="M36.1125 48.7263C35.5077 48.7263 35.0188 48.2374 35.0188 47.6326V25.7827C35.0188 25.179 35.5077 24.689 36.1125 24.689C36.7174 24.689 37.2063 25.179 37.2063 25.7827V47.6326C37.2063 48.2363 36.7174 48.7263 36.1125 48.7263Z" fill="#3A3847"/>
<path d="M43.75 27.3438H10.9375C10.3327 27.3438 9.84375 26.8537 9.84375 26.25C9.84375 25.6463 10.3327 25.1562 10.9375 25.1562H43.75C44.3548 25.1562 44.8438 25.6463 44.8438 26.25C44.8438 26.8537 44.3548 27.3438 43.75 27.3438Z" fill="#3A3847"/>
<path d="M29.5312 22.6104C28.9264 22.6104 28.4375 22.1204 28.4375 21.5166C28.4375 19.1038 26.4753 17.1416 24.0625 17.1416C21.6497 17.1416 19.6875 19.1038 19.6875 21.5166C19.6875 22.1204 19.1986 22.6104 18.5937 22.6104C17.9889 22.6104 17.5 22.1204 17.5 21.5166C17.5 17.8974 20.4433 14.9541 24.0625 14.9541C27.6817 14.9541 30.625 17.8974 30.625 21.5166C30.625 22.1204 30.1361 22.6104 29.5312 22.6104Z" fill="#3A3847"/>
<path d="M18.5938 30.625C17.9889 30.625 17.5 30.135 17.5 29.5312V21.875C17.5 21.2713 17.9889 20.7812 18.5938 20.7812C19.1986 20.7812 19.6875 21.2713 19.6875 21.875V29.5312C19.6875 30.135 19.1986 30.625 18.5938 30.625Z" fill="#3A3847"/>
<path d="M29.5312 30.625C28.9264 30.625 28.4375 30.135 28.4375 29.5312V21.875C28.4375 21.2713 28.9264 20.7812 29.5312 20.7812C30.1361 20.7812 30.625 21.2713 30.625 21.875V29.5312C30.625 30.135 30.1361 30.625 29.5312 30.625Z" fill="#3A3847"/>
<path d="M36.0937 22.9688C35.4889 22.9688 35 22.4787 35 21.875C35 19.4622 33.0378 17.5 30.625 17.5C28.2122 17.5 26.25 19.4622 26.25 21.875C26.25 22.4787 25.7611 22.9688 25.1562 22.9688C24.5514 22.9688 24.0625 22.4787 24.0625 21.875C24.0625 18.2558 27.0058 15.3125 30.625 15.3125C34.2442 15.3125 37.1875 18.2558 37.1875 21.875C37.1875 22.4787 36.6986 22.9688 36.0937 22.9688Z" fill="#3A3847"/>
<path d="M25.1562 27.3437C24.5514 27.3437 24.0625 26.8537 24.0625 26.25V21.875C24.0625 21.2712 24.5514 20.7812 25.1562 20.7812C25.7611 20.7812 26.25 21.2712 26.25 21.875V26.25C26.25 26.8537 25.7611 27.3437 25.1562 27.3437Z" fill="#3A3847"/>
<path d="M36.0938 27.3437C35.4889 27.3437 35 26.8537 35 26.25V21.875C35 21.2712 35.4889 20.7812 36.0938 20.7812C36.6986 20.7812 37.1875 21.2712 37.1875 21.875V26.25C37.1875 26.8537 36.6986 27.3437 36.0938 27.3437Z" fill="#3A3847"/>
</svg>
