<svg width="50" height="50" viewBox="0 0 50 50" fill="none" xmlns="http://www.w3.org/2000/svg">
<path d="M49.9854 0H0.0146484C0.00655833 0 0 0.00655833 0 0.0146484V49.9854C0 49.9934 0.00655833 50 0.0146484 50H49.9854C49.9934 50 50 49.9934 50 49.9854V0.0146484C50 0.00655833 49.9934 0 49.9854 0Z" fill="#25D366"/>
<path d="M12.0108 38.379L13.378 32.0313C11.6208 29.2597 10.9353 25.9421 11.4501 22.701C11.965 19.4599 13.6448 16.518 16.1744 14.4273C18.704 12.3366 21.9095 11.2408 25.1896 11.3455C28.4697 11.4501 31.5989 12.7481 33.99 14.9958C36.3812 17.2435 37.87 20.2865 38.1772 23.5538C38.4844 26.8212 37.5887 30.0883 35.6584 32.7423C33.728 35.3962 30.8956 37.2546 27.6925 37.9688C24.4894 38.6829 21.1358 38.2038 18.2608 36.6212L12.0108 38.379Z" fill="#25D366" stroke="white" stroke-width="2.24139"/>
<path d="M30.0776 26.66C29.7846 26.4647 29.4916 26.3671 29.1987 26.7577L28.0268 28.3202C27.7338 28.5155 27.5385 28.6132 27.1479 28.4178C25.683 27.6366 23.6323 26.7577 21.8744 23.828C21.7768 23.4374 21.9721 23.2421 22.1674 23.0468L23.0463 21.6796C23.2416 21.4843 23.144 21.2889 23.0463 21.0936L21.8744 18.2616C21.5815 17.4803 21.2885 17.578 20.9955 17.578H20.2143C20.019 17.578 19.6283 17.6757 19.2377 18.0663C17.0893 20.2147 17.9682 23.2421 19.5307 25.1952C19.8237 25.5858 21.7768 29.1014 25.976 30.9569C29.101 32.3241 29.7846 32.1288 30.6635 31.9335C31.7377 31.8358 32.8119 30.9569 33.3002 30.078C33.3979 29.785 33.8862 28.5155 33.4955 28.3202" fill="white"/>
</svg>
