<svg width="70" height="71" viewBox="0 0 70 71" fill="none" xmlns="http://www.w3.org/2000/svg">
<path d="M0.977295 0H45.0348V69.7924H0.977295V0Z" fill="#FFA500"/>
<path d="M6.85107 0H16.5018V69.7924H6.85107V0Z" fill="#58595B"/>
<path d="M24.0552 16.825H28.8805V63.9764H24.0552V16.825Z" fill="#CA9E00"/>
<path d="M33.2859 35.9343H38.1112V63.9759H33.2859V35.9343Z" fill="#CA9E00"/>
<path d="M47.9718 41.5428C57.5888 41.5428 65.385 33.824 65.385 24.3024C65.385 14.7808 57.5888 7.06201 47.9718 7.06201C38.3547 7.06201 30.5586 14.7808 30.5586 24.3024C30.5586 33.824 38.3547 41.5428 47.9718 41.5428Z" fill="#EFF0F2"/>
<path d="M47.9718 41.5428C57.5888 41.5428 65.385 33.824 65.385 24.3024C65.385 14.7808 57.5888 7.06201 47.9718 7.06201C38.3547 7.06201 30.5586 14.7808 30.5586 24.3024C30.5586 33.824 38.3547 41.5428 47.9718 41.5428Z" stroke="#414042" stroke-width="1.5456" stroke-miterlimit="10"/>
<path d="M47.1324 31.988V30.7417C45.454 30.534 43.9854 29.7032 42.5168 28.4569L44.405 26.3797C45.454 27.2106 46.2932 27.8337 47.1324 28.0414V25.1334C45.8736 24.718 44.8246 24.3026 44.1952 23.6794C43.5658 23.0563 43.1462 22.2254 43.1462 21.1868C43.1462 20.1483 43.5658 19.1097 44.1952 18.4865C44.8246 17.8634 45.8736 17.448 47.1324 17.2402V16.2017H49.2304V17.2402C50.4892 17.448 51.7479 17.8634 53.0067 18.902L51.5381 21.1868C50.6989 20.5637 50.0696 20.1483 49.2304 19.9405V22.6408C50.699 23.0563 51.7479 23.4717 52.3773 24.0948C53.0067 24.718 53.4263 25.5489 53.4263 26.5874C53.4263 27.626 53.0067 28.6646 52.3773 29.2877C51.5381 29.9109 50.6989 30.3263 49.4402 30.534V31.7803H47.1324V31.988ZM47.1324 19.9405C46.503 20.1483 46.2932 20.5637 46.2932 20.9791C46.2932 21.3945 46.503 21.81 47.1324 22.2254V19.9405ZM50.2794 26.7952C50.2794 26.5874 50.2794 26.3797 50.0696 26.172C49.8598 25.9643 49.65 25.7566 49.2304 25.7566V28.0414C49.8598 27.8337 50.2794 27.4183 50.2794 26.7952Z" fill="#414042"/>
<path d="M26.363 41.5432H67.6932V48.6055H26.363V41.5432Z" fill="#B4D7EE"/>
<path d="M28.6699 48.6055H70V55.6678H28.6699V48.6055Z" fill="#444444"/>
<path d="M24.6838 55.4602H66.014V62.5225H24.6838V55.4602Z" fill="#B4D7EE"/>
<path d="M27.4119 62.5222H68.742V69.5845H27.4119V62.5222Z" fill="#444444"/>
<path d="M31.6082 41.5432V48.6055" stroke="#EFF0F2" stroke-width="1.5456" stroke-miterlimit="10"/>
<path d="M35.1738 41.5432V48.6055" stroke="#EFF0F2" stroke-width="1.5456" stroke-miterlimit="10"/>
<path d="M58.4614 48.6055V55.4601" stroke="#EFF0F2" stroke-width="1.5456" stroke-miterlimit="10"/>
<path d="M62.0286 48.6055V55.4601" stroke="#EFF0F2" stroke-width="1.5456" stroke-miterlimit="10"/>
<path d="M60.1396 62.5222V69.5845" stroke="#EFF0F2" stroke-width="1.5456" stroke-miterlimit="10"/>
<path d="M63.9165 62.5222V69.5845" stroke="#EFF0F2" stroke-width="1.5456" stroke-miterlimit="10"/>
<path d="M0 70H69.8926" stroke="#EFF0F2" stroke-width="1.5456" stroke-miterlimit="10"/>
<path d="M28.6699 55.4602V62.5225" stroke="#EFF0F2" stroke-width="1.5456" stroke-miterlimit="10"/>
<path d="M32.2368 55.4602V62.5225" stroke="#EFF0F2" stroke-width="1.5456" stroke-miterlimit="10"/>
</svg>
