<svg width="70" height="70" viewBox="0 0 70 70" fill="none" xmlns="http://www.w3.org/2000/svg">
<path d="M9.84766 56.875V64.5312H3.28516H1.09766V56.875H3.28516H9.84766Z" fill="#D9D9D9"/>
<path d="M9.84766 60.1562V64.5312H3.28516H1.09766V60.1562H3.28516H9.84766Z" fill="#808080"/>
<path d="M68.9038 56.875V64.5312H66.7163H60.1538V56.875H66.7163H68.9038Z" fill="#D9D9D9"/>
<path d="M68.9038 60.1562V64.5312H66.7163H60.1538V60.1562H66.7163H68.9038Z" fill="#808080"/>
<path d="M14.2211 68.9058H3.28467V64.5312H9.8465C9.8465 65.6915 10.3074 66.8041 11.1278 67.6245C11.9482 68.4449 13.0609 68.9058 14.2211 68.9058Z" fill="#D9D9D9"/>
<path d="M66.7159 64.5312V68.9058H55.7795C56.9397 68.9058 58.0524 68.4449 58.8728 67.6245C59.6932 66.8041 60.1541 65.6915 60.1541 64.5312H66.7159Z" fill="#D9D9D9"/>
<path d="M9.84662 20.7812V29.8484C6.99222 30.6797 4.89243 33.0641 3.4707 35.3609L6.5657 22.9688L9.84662 20.7812Z" fill="#FAA68E"/>
<path d="M66.5297 35.3609C65.108 33.0641 63.0082 30.6797 60.1538 29.8484V20.7812L63.4347 22.9688L66.5297 35.3609Z" fill="#FAA68E"/>
<path d="M9.84676 45.3688V56.8751H3.28492V53.5938C2.99601 53.5999 2.70885 53.5475 2.44071 53.4397C2.17258 53.332 1.92901 53.1711 1.72467 52.9667C1.52034 52.7624 1.35945 52.5188 1.25169 52.2506C1.14393 51.9824 1.09153 51.6952 1.09765 51.4063V40.4688C1.68479 38.6787 2.48137 36.9642 3.47084 35.361C4.89257 33.0641 6.99236 30.6797 9.84676 29.8485C10.5562 29.6353 11.2933 29.5284 12.034 29.5313H19.6895C20.5597 29.5313 21.3942 29.877 22.0095 30.4924C22.6248 31.1077 22.9704 31.9423 22.9704 32.8126C22.9704 33.6828 22.6248 34.5174 22.0095 35.1327C21.3942 35.7481 20.5597 36.0938 19.6895 36.0938H15.315C15.315 36.0938 15.315 43.2907 9.84676 45.3688Z" fill="#FFDECF"/>
<path d="M6.56543 45.3688V56.875H9.84635V45.3688C15.3145 43.2906 15.3145 36.0938 15.3145 36.0938H12.0336C12.0336 36.0938 12.0336 43.2906 6.56543 45.3688Z" fill="#FFCDBE"/>
<path d="M19.6895 29.5312H16.4082C17.2784 29.5313 18.113 29.877 18.7284 30.4923C19.3438 31.1077 19.6895 31.9423 19.6895 32.8125C19.6895 33.6827 19.3438 34.5173 18.7284 35.1327C18.113 35.748 17.2784 36.0938 16.4082 36.0938H19.6895C20.5597 36.0938 21.3943 35.748 22.0096 35.1327C22.625 34.5173 22.9707 33.6827 22.9707 32.8125C22.9707 31.9423 22.625 31.1077 22.0096 30.4923C21.3943 29.877 20.5597 29.5313 19.6895 29.5312Z" fill="#FFCDBE"/>
<path d="M66.7155 53.5938V56.8751H60.1537V45.3688C54.6855 43.2907 54.6855 36.0938 54.6855 36.0938H50.3109C49.4408 36.0938 48.6063 35.7481 47.991 35.1327C47.3757 34.5174 47.03 33.6828 47.03 32.8126C47.03 31.9423 47.3757 31.1077 47.991 30.4924C48.6063 29.877 49.4408 29.5313 50.3109 29.5313H57.9664C58.7072 29.5284 59.4443 29.6353 60.1537 29.8485C63.0081 30.6797 65.1079 33.0641 66.5296 35.361C67.5191 36.9642 68.3157 38.6787 68.9028 40.4688V51.4063C68.9089 51.6952 68.8565 51.9824 68.7488 52.2506C68.641 52.5188 68.4801 52.7624 68.2758 52.9667C68.0714 53.1711 67.8279 53.332 67.5597 53.4397C67.2916 53.5475 67.0044 53.5999 66.7155 53.5938Z" fill="#FFDECF"/>
<path d="M50.3113 32.8125C50.3113 31.9423 50.657 31.1077 51.2723 30.4923C51.8877 29.877 52.7223 29.5313 53.5925 29.5312H50.3113C49.441 29.5313 48.6064 29.877 47.9911 30.4923C47.3757 31.1077 47.03 31.9423 47.03 32.8125C47.03 33.6827 47.3757 34.5173 47.9911 35.1327C48.6064 35.748 49.441 36.0938 50.3113 36.0938H53.5925C52.7223 36.0938 51.8877 35.748 51.2723 35.1327C50.657 34.5173 50.3113 33.6827 50.3113 32.8125Z" fill="#FFCDBE"/>
<path d="M57.9665 36.0938H54.6855C54.6855 36.0938 54.6855 43.2906 60.1537 45.3688V56.875H63.4347V45.3688C57.9665 43.2906 57.9665 36.0938 57.9665 36.0938Z" fill="#FFCDBE"/>
<path d="M48.1238 22.9688C48.1238 22.9688 45.9365 30.625 35.0001 36.0938C24.0637 30.625 21.8765 22.9688 21.8765 22.9688V14.2188C23.6168 14.2188 25.2858 13.5273 26.5164 12.2966C27.747 11.0659 28.4383 9.39673 28.4383 7.65625H41.562C41.562 9.39673 42.2533 11.0659 43.4839 12.2966C44.7145 13.5273 46.3835 14.2188 48.1238 14.2188V22.9688Z" fill="#FFA500"/>
<path d="M41.5622 7.65625H38.2812C38.2812 9.39673 38.9726 11.0659 40.2032 12.2966C41.4337 13.5273 43.1028 14.2188 44.8431 14.2188V22.9688C44.8431 22.9688 42.8669 29.8386 33.3599 35.2111C33.887 35.5097 34.4251 35.8061 35.0003 36.0938C45.9367 30.625 48.124 22.9688 48.124 22.9688V14.2188C46.3837 14.2188 44.7147 13.5273 43.4841 12.2966C42.2535 11.0659 41.5622 9.39673 41.5622 7.65625Z" fill="#FFA500"/>
<path d="M30.6257 19.6875H39.3757V26.25H30.6257V19.6875Z" fill="#FFCE54"/>
<path d="M39.3757 19.6875H37.1882V17.5C37.1882 16.9198 36.9578 16.3634 36.5475 15.9532C36.1373 15.543 35.5809 15.3125 35.0007 15.3125C34.4206 15.3125 33.8642 15.543 33.4539 15.9532C33.0437 16.3634 32.8132 16.9198 32.8132 17.5V19.6875H30.6257V17.5C30.6257 16.3397 31.0867 15.2269 31.9071 14.4064C32.7276 13.5859 33.8404 13.125 35.0007 13.125C36.1611 13.125 37.2739 13.5859 38.0943 14.4064C38.9148 15.2269 39.3757 16.3397 39.3757 17.5V19.6875Z" fill="#F2F6FC"/>
<path d="M33.9067 19.6875H36.0942V22.9688H33.9067V19.6875Z" fill="#4A98F7"/>
<path d="M21.8765 43.7498H24.064V45.9373H21.8765V43.7498Z" fill="#9C9C9C"/>
<path d="M26.251 43.7498H48.1238V45.937H26.251V43.7498Z" fill="#9C9C9C"/>
<path d="M19.6892 48.1248H50.3111V50.312H19.6892V48.1248Z" fill="#9C9C9C"/>
<path d="M17.5022 53.5935H32.8131V60.1553H17.5022V53.5935Z" fill="#FFA500"/>
<path d="M37.1877 53.5935H52.4987V60.1553H37.1877V53.5935Z" fill="#FFCE54"/>
<path d="M17.5022 56.875H32.8131V60.1559H17.5022V56.875Z" fill="#CA9E00"/>
<path d="M37.1877 56.875H52.4987V60.1559H37.1877V56.875Z" fill="#FFA500"/>
<path d="M69.9964 51.4062V40.4688C69.9966 40.3624 69.9811 40.2567 69.9505 40.1548C69.3567 38.3132 68.5492 36.5476 67.5445 34.8939L64.4954 22.7041C64.4297 22.44 64.2679 22.2099 64.0416 22.0588L61.2473 20.1961V5.46875C61.2456 4.01888 60.6689 2.62889 59.6438 1.60368C58.6187 0.578465 57.2289 0.00173672 55.7791 0L14.2209 0C12.7711 0.00173672 11.3813 0.578465 10.3562 1.60368C9.33107 2.62889 8.75441 4.01888 8.75267 5.46875V20.1961L5.95842 22.0555C5.73213 22.2066 5.57031 22.4367 5.50456 22.7008L2.45987 34.8906C1.45517 36.5443 0.647668 38.31 0.053866 40.1516C0.0214571 40.2542 0.00450228 40.3611 0.00355861 40.4688V51.4062C-0.0294461 52.0927 0.16788 52.7705 0.564182 53.3319C0.960484 53.8933 1.53303 54.3062 2.19084 54.5048V55.7812H1.0972C0.807146 55.7812 0.528975 55.8965 0.323878 56.1016C0.118781 56.3067 0.00355861 56.5849 0.00355861 56.875V64.5312C0.00355861 64.8213 0.118781 65.0995 0.323878 65.3046C0.528975 65.5098 0.807146 65.625 1.0972 65.625H2.19084V68.9062H4.37811V65.625H8.86203C9.11586 66.8594 9.78745 67.9685 10.7636 68.7655C11.7397 69.5624 12.9608 69.9984 14.2209 70H55.7791C57.0392 69.9984 58.2603 69.5624 59.2364 68.7655C60.2126 67.9685 60.8841 66.8594 61.138 65.625H65.6219V68.9062H67.8092V65.625H68.9028C69.1929 65.625 69.471 65.5098 69.6761 65.3046C69.8812 65.0995 69.9964 64.8213 69.9964 64.5312V56.875C69.9964 56.5849 69.8812 56.3067 69.6761 56.1016C69.471 55.8965 69.1929 55.7812 68.9028 55.7812H67.8092V54.5048C68.467 54.3062 69.0395 53.8933 69.4358 53.3319C69.8321 52.7705 70.0294 52.0927 69.9964 51.4062ZM67.8092 51.4062C67.8236 51.5535 67.8052 51.7021 67.7554 51.8413C67.7055 51.9806 67.6254 52.1071 67.5209 52.2117C67.4163 52.3163 67.2898 52.3964 67.1506 52.4462C67.0113 52.4961 66.8627 52.5145 66.7155 52.5C66.4255 52.5 66.1473 52.6152 65.9422 52.8204C65.7371 53.0255 65.6219 53.3037 65.6219 53.5938V55.7812H61.2473V46.8125C61.9673 46.9581 62.7001 47.0314 63.4346 47.0312V44.8438C55.8983 44.8438 55.7791 36.4492 55.7791 36.0938C55.7791 35.8037 55.6639 35.5255 55.4588 35.3204C55.2537 35.1152 54.9755 35 54.6855 35H50.3109C49.7308 35 49.1745 34.7695 48.7643 34.3593C48.3541 33.9491 48.1237 33.3927 48.1237 32.8125C48.1237 32.2323 48.3541 31.6759 48.7643 31.2657C49.1745 30.8555 49.7308 30.625 50.3109 30.625H57.9664C64.2669 30.625 67.399 39.4002 67.8092 40.6394V51.4062ZM62.4766 23.6436L64.3019 30.9531C63.3991 30.1536 62.3659 29.5147 61.2473 29.0642V22.8244L62.4766 23.6436ZM7.52342 23.6436L8.75267 22.8244V29.0642C7.63405 29.5147 6.60092 30.1536 5.69814 30.9531L7.52342 23.6436ZM2.19084 40.6394C2.60095 39.4002 5.73313 30.625 12.0336 30.625H19.6891C20.2692 30.625 20.8255 30.8555 21.2357 31.2657C21.6459 31.6759 21.8763 32.2323 21.8763 32.8125C21.8763 33.3927 21.6459 33.9491 21.2357 34.3593C20.8255 34.7695 20.2692 35 19.6891 35H15.3145C15.0245 35 14.7463 35.1152 14.5412 35.3204C14.3361 35.5255 14.2209 35.8037 14.2209 36.0938C14.2209 36.4514 14.1017 44.8438 6.56539 44.8438V47.0312C7.29995 47.0314 8.03268 46.9581 8.75267 46.8125V55.7812H4.37811V53.5938C4.37479 53.307 4.26029 53.0326 4.05873 52.8286C3.85718 52.6246 3.5843 52.5068 3.2976 52.5C3.1495 52.5159 2.99971 52.4987 2.85909 52.4496C2.71847 52.4004 2.59054 52.3206 2.48459 52.2159C2.37864 52.1112 2.29731 51.9842 2.2465 51.8442C2.19569 51.7041 2.17668 51.5545 2.19084 51.4062V40.6394ZM2.19084 57.9688H8.75267V63.4375H2.19084V57.9688ZM55.7791 67.8125H14.2209C13.3507 67.8125 12.5162 67.4668 11.9009 66.8514C11.2856 66.2361 10.9399 65.4015 10.9399 64.5312V46.0841C14.6714 44.2553 16.08 40.1494 16.3556 37.1875H19.6891C20.8493 37.1875 21.9619 36.7266 22.7823 35.9061C23.6027 35.0856 24.0636 33.9728 24.0636 32.8125C24.0636 31.6522 23.6027 30.5394 22.7823 29.7189C21.9619 28.8984 20.8493 28.4375 19.6891 28.4375H12.0336C11.6679 28.4395 11.3026 28.4639 10.9399 28.5108V5.46875C10.9399 4.59851 11.2856 3.76391 11.9009 3.14856C12.5162 2.5332 13.3507 2.1875 14.2209 2.1875H55.7791C56.6493 2.1875 57.4838 2.5332 58.0991 3.14856C58.7144 3.76391 59.0601 4.59851 59.0601 5.46875V28.5108C58.6974 28.4639 58.3321 28.4395 57.9664 28.4375H50.3109C49.1507 28.4375 48.0381 28.8984 47.2177 29.7189C46.3973 30.5394 45.9364 31.6522 45.9364 32.8125C45.9364 33.9728 46.3973 35.0856 47.2177 35.9061C48.0381 36.7266 49.1507 37.1875 50.3109 37.1875H53.6444C53.9189 40.1494 55.3286 44.2553 59.0601 46.0841V64.5312C59.0601 65.4015 58.7144 66.2361 58.0991 66.8514C57.4838 67.4668 56.6493 67.8125 55.7791 67.8125ZM67.8092 63.4375H61.2473V57.9688H67.8092V63.4375Z" fill="black"/>
<path d="M34.5114 37.0781C34.6632 37.154 34.8306 37.1935 35.0003 37.1935C35.17 37.1935 35.3373 37.154 35.4891 37.0781C46.7274 31.4584 49.0809 23.6064 49.1749 23.2739C49.2039 23.1748 49.2183 23.072 49.2176 22.9688V14.2188C49.2176 13.9287 49.1023 13.6505 48.8973 13.4454C48.6922 13.2402 48.414 13.125 48.1239 13.125C46.6742 13.1233 45.2844 12.5465 44.2593 11.5213C43.2341 10.4961 42.6575 9.10612 42.6557 7.65625C42.6557 7.36617 42.5405 7.08797 42.3354 6.88285C42.1303 6.67773 41.8521 6.5625 41.5621 6.5625H28.4384C28.1484 6.5625 27.8702 6.67773 27.6651 6.88285C27.46 7.08797 27.3448 7.36617 27.3448 7.65625C27.3431 9.10612 26.7664 10.4961 25.7413 11.5213C24.7162 12.5465 23.3263 13.1233 21.8766 13.125C21.5865 13.125 21.3084 13.2402 21.1033 13.4454C20.8982 13.6505 20.783 13.9287 20.783 14.2188V22.9688C20.7828 23.0702 20.7971 23.1711 20.8256 23.2684C20.9197 23.6009 23.2732 31.453 34.5114 37.0781ZM22.9702 15.2348C24.6051 14.9962 26.1193 14.2361 27.2875 13.0677C28.4558 11.8993 29.2158 10.385 29.4544 8.75H40.5461C40.7848 10.385 41.5447 11.8993 42.713 13.0677C43.8813 14.2361 45.3954 14.9962 47.0303 15.2348V22.7981C46.6935 23.7748 44.2164 30.0847 35.0003 34.8666C25.8367 30.1088 23.3115 23.765 22.9702 22.7948V15.2348Z" fill="black"/>
<path d="M30.6256 27.3438H39.3747C39.6648 27.3438 39.943 27.2285 40.1481 27.0234C40.3531 26.8183 40.4684 26.5401 40.4684 26.25V19.6875C40.4684 19.3974 40.3531 19.1192 40.1481 18.9141C39.943 18.709 39.6648 18.5938 39.3747 18.5938V17.5C39.3747 16.3397 38.9138 15.2269 38.0935 14.4064C37.2731 13.5859 36.1604 13.125 35.0002 13.125C33.84 13.125 32.7273 13.5859 31.9069 14.4064C31.0865 15.2269 30.6256 16.3397 30.6256 17.5V18.5938C30.3356 18.5938 30.0574 18.709 29.8523 18.9141C29.6472 19.1192 29.532 19.3974 29.532 19.6875V26.25C29.532 26.5401 29.6472 26.8183 29.8523 27.0234C30.0574 27.2285 30.3356 27.3438 30.6256 27.3438ZM38.2811 25.1562H31.7193V20.7812H33.9065V22.9688H36.0938V20.7812H38.2811V25.1562ZM32.8129 17.5C32.8129 16.9198 33.0433 16.3634 33.4535 15.9532C33.8637 15.543 34.4201 15.3125 35.0002 15.3125C35.5803 15.3125 36.1366 15.543 36.5468 15.9532C36.957 16.3634 37.1875 16.9198 37.1875 17.5V18.5938H32.8129V17.5Z" fill="black"/>
<path d="M21.8765 43.7498H24.064V45.9373H21.8765V43.7498Z" fill="black"/>
<path d="M26.251 43.7498H48.1238V45.937H26.251V43.7498Z" fill="black"/>
<path d="M19.6892 48.125H50.3111V50.3123H19.6892V48.125Z" fill="black"/>
<path d="M32.8128 52.5H17.5018C17.2118 52.5 16.9336 52.6152 16.7285 52.8203C16.5234 53.0254 16.4082 53.3036 16.4082 53.5936V60.1555C16.4082 60.4455 16.5234 60.7237 16.7285 60.9288C16.9336 61.1339 17.2118 61.2491 17.5018 61.2491H32.8128C33.1028 61.2491 33.381 61.1339 33.5861 60.9288C33.7912 60.7237 33.9064 60.4455 33.9064 60.1555V53.5936C33.9064 53.3036 33.7912 53.0254 33.5861 52.8203C33.381 52.6152 33.1028 52.5 32.8128 52.5ZM31.7191 59.0618H18.5955V54.6873H31.7191V59.0618Z" fill="black"/>
<path d="M52.4983 52.5H37.1874C36.8973 52.5 36.6192 52.6152 36.4141 52.8203C36.209 53.0254 36.0938 53.3036 36.0938 53.5936V60.1555C36.0938 60.4455 36.209 60.7237 36.4141 60.9288C36.6192 61.1339 36.8973 61.2491 37.1874 61.2491H52.4983C52.7884 61.2491 53.0666 61.1339 53.2717 60.9288C53.4767 60.7237 53.592 60.4455 53.592 60.1555V53.5936C53.592 53.3036 53.4767 53.0254 53.2717 52.8203C53.0666 52.6152 52.7884 52.5 52.4983 52.5ZM51.4047 59.0618H38.281V54.6873H51.4047V59.0618Z" fill="black"/>
</svg>
