<svg width="18" height="18" viewBox="0 0 18 18" fill="none" xmlns="http://www.w3.org/2000/svg">
<g clip-path="url(#clip0_7279_31)">
<path d="M17.4098 13.2819L17.4096 13.2819V13.2943L17.4096 16.0041L17.4096 16.0061C17.4103 16.1879 17.373 16.3678 17.3 16.5345C17.227 16.7011 17.1199 16.8507 16.9856 16.9738C16.8512 17.0968 16.6924 17.1906 16.5195 17.2489C16.3479 17.3068 16.1662 17.3286 15.9857 17.3129C13.2801 17.0188 10.6813 16.0957 8.39784 14.6178L8.39785 14.6178L8.39395 14.6153C6.26917 13.2678 4.4678 11.47 3.11773 9.3496L3.11774 9.34958L3.11535 9.3459C1.62939 7.05664 0.704393 4.45047 0.415142 1.73832C0.39941 1.559 0.421 1.37836 0.478588 1.20771C0.536565 1.03592 0.629771 0.877984 0.75233 0.743989C0.874891 0.609992 1.02412 0.50287 1.19056 0.429498C1.35693 0.356157 1.53682 0.318162 1.71876 0.317959H4.43363V0.317983L4.43854 0.317935C4.75672 0.314809 5.06503 0.427268 5.30603 0.634118C5.54647 0.840488 5.70352 1.12672 5.74834 1.43956C5.86797 2.34332 6.08956 3.23068 6.40889 4.08475L6.40931 4.08588C6.49732 4.31956 6.51636 4.57348 6.4642 4.81758C6.41212 5.06128 6.29123 5.28512 6.11568 5.46265L4.96736 6.6087C4.8078 6.76794 4.77453 7.01426 4.88613 7.21012C6.21909 9.54971 8.16001 11.4867 10.504 12.8169C10.6995 12.9278 10.9449 12.8947 11.104 12.736L12.2514 11.5908C12.2517 11.5905 12.252 11.5902 12.2523 11.5899C12.4302 11.4147 12.6547 11.2938 12.8994 11.2417C13.1446 11.1896 13.3996 11.2086 13.6342 11.2966L13.6353 11.297C14.4909 11.6157 15.3799 11.8368 16.2853 11.9562C16.6029 12.0014 16.8928 12.1613 17.0999 12.4053C17.3075 12.6498 17.4177 12.9618 17.4098 13.2819Z" stroke="#6F7C98" stroke-linecap="round" stroke-linejoin="round"/>
</g>
<defs>
<clipPath id="clip0_7279_31">
<rect width="18" height="18" fill="white"/>
</clipPath>
</defs>
</svg>
