<svg width="20" height="20" viewBox="0 0 20 20" fill="none" xmlns="http://www.w3.org/2000/svg">
<path d="M10 19C14.9706 19 19 14.9706 19 10C19 5.02944 14.9706 1 10 1C5.02944 1 1 5.02944 1 10C1 14.9706 5.02944 19 10 19Z" stroke="#6F7C98"/>
<path d="M12.8889 7.48386C12.6555 6.94037 12.2654 6.47877 11.7685 6.15803C11.2715 5.83729 10.6902 5.67195 10.0988 5.68315C7.58283 5.68315 7.49031 7.48386 7.49031 7.48386C7.49031 7.48386 7.11308 9.7045 10.1878 9.93938C13.3907 10.1849 12.8889 12.3949 12.8889 12.3949C12.8889 12.3949 12.5615 14.3166 10.1878 14.4412C7.81415 14.5657 7.08105 12.0675 7.08105 12.0675" stroke="#6F7C98"/>
<path d="M10.0996 4.08887V16.281" stroke="#6F7C98"/>
</svg>
