<svg width="16" height="10" viewBox="0 0 16 10" fill="none" xmlns="http://www.w3.org/2000/svg">
<path d="M15.0951 4.84431C15.0729 4.79455 14.5396 3.6114 13.3489 2.42062C12.2448 1.31636 10.3449 0 7.5641 0C4.78334 0 2.88343 1.31636 1.77928 2.42062C0.588628 3.6114 0.0552746 4.79455 0.0331143 4.84431C0.0112701 4.8935 -1.10337e-05 4.94672 8.09787e-09 5.00054C1.10499e-05 5.05436 0.0113141 5.10757 0.0331785 5.15675C0.0552759 5.20652 0.588691 6.38941 1.77935 7.57994C2.88349 8.68396 4.78334 10 7.5641 10C10.3449 10 12.2447 8.68396 13.3489 7.57994C14.5395 6.38941 15.0729 5.20652 15.095 5.15675C15.1169 5.10757 15.1282 5.05436 15.1282 5.00054C15.1282 4.94672 15.1169 4.8935 15.0951 4.84431V4.84431ZM7.5641 9.23077C5.5527 9.23077 3.79614 8.49897 2.34306 7.05573C1.73381 6.45055 1.21828 5.75785 0.813488 5.0005C1.21827 4.24297 1.73383 3.55008 2.34312 2.94471C3.79614 1.50115 5.55276 0.769231 7.5641 0.769231C9.57545 0.769231 11.3321 1.50115 12.7851 2.94471C13.3944 3.55003 13.9099 4.24288 14.3147 5.00038C13.9065 5.78244 11.8615 9.23077 7.5641 9.23077V9.23077ZM7.5641 2.05185C6.9809 2.05185 6.4108 2.22478 5.92588 2.54879C5.44097 2.8728 5.06302 3.33333 4.83984 3.87214C4.61666 4.41095 4.55827 5.00383 4.67204 5.57583C4.78582 6.14783 5.06666 6.67324 5.47904 7.08562C5.89143 7.49801 6.41684 7.77885 6.98884 7.89262C7.56083 8.0064 8.15372 7.94801 8.69253 7.72482C9.23134 7.50164 9.69186 7.1237 10.0159 6.63878C10.3399 6.15387 10.5128 5.58377 10.5128 5.00056C10.5119 4.21879 10.201 3.46929 9.64818 2.91649C9.09538 2.36369 8.34588 2.05273 7.5641 2.05185V2.05185ZM7.5641 7.18005C7.13304 7.18005 6.71166 7.05223 6.35324 6.81274C5.99483 6.57326 5.71548 6.23287 5.55052 5.83462C5.38556 5.43637 5.3424 4.99815 5.42649 4.57537C5.51059 4.15259 5.71816 3.76424 6.02297 3.45943C6.32778 3.15463 6.71613 2.94705 7.13891 2.86295C7.56168 2.77886 7.99991 2.82202 8.39816 2.98698C8.7964 3.15194 9.13679 3.43129 9.37628 3.78971C9.61577 4.14812 9.74359 4.5695 9.74359 5.00056C9.74294 5.5784 9.51311 6.13239 9.10452 6.54098C8.69593 6.94958 8.14194 7.17941 7.5641 7.18005V7.18005Z" fill="#6F7C98"/>
</svg>
