<svg width="25" height="16" viewBox="0 0 25 16" fill="none" xmlns="http://www.w3.org/2000/svg">
<path d="M24.1521 7.7509C24.1167 7.67127 23.2633 5.77825 21.3583 3.873C19.5916 2.10617 16.5518 0 12.1026 0C7.65334 0 4.61348 2.10617 2.84685 3.873C0.941806 5.77825 0.0884393 7.67127 0.0529829 7.7509C0.0180322 7.8296 -1.7654e-05 7.91475 1.29566e-08 8.00086C1.76799e-05 8.08697 0.0181025 8.17212 0.0530855 8.2508C0.0884414 8.33043 0.941906 10.2231 2.84696 12.1279C4.61358 13.8943 7.65334 16 12.1026 16C16.5518 16 19.5915 13.8943 21.3582 12.1279C23.2632 10.2231 24.1167 8.33043 24.152 8.2508C24.187 8.17212 24.2051 8.08697 24.2051 8.00086C24.2051 7.91475 24.1871 7.8296 24.1521 7.7509V7.7509ZM12.1026 14.7692C8.88431 14.7692 6.07382 13.5984 3.7489 11.2892C2.7741 10.3209 1.94924 9.21255 1.30158 8.0008C1.94924 6.78875 2.77413 5.68012 3.749 4.71154C6.07382 2.40184 8.88441 1.23077 12.1026 1.23077C15.3207 1.23077 18.1313 2.40185 20.4561 4.71154C21.431 5.68004 22.2558 6.78861 22.9034 8.0006C22.2504 9.2519 18.9784 14.7692 12.1026 14.7692V14.7692ZM12.1026 3.28295C11.1694 3.28295 10.2573 3.55966 9.48141 4.07807C8.70555 4.59649 8.10084 5.33333 7.74375 6.19542C7.38666 7.05751 7.29323 8.00613 7.47527 8.92133C7.65731 9.83652 8.10665 10.6772 8.76647 11.337C9.42629 11.9968 10.2669 12.4462 11.1821 12.6282C12.0973 12.8102 13.046 12.7168 13.908 12.3597C14.7701 12.0026 15.507 11.3979 16.0254 10.6221C16.5438 9.84619 16.8205 8.93402 16.8205 8.0009C16.8191 6.75006 16.3216 5.55086 15.4371 4.66638C14.5526 3.7819 13.3534 3.28437 12.1026 3.28295V3.28295ZM12.1026 11.4881C11.4129 11.4881 10.7387 11.2836 10.1652 10.9004C9.59173 10.5172 9.14477 9.97259 8.88083 9.33539C8.61689 8.69819 8.54783 7.99703 8.68239 7.32059C8.81694 6.64414 9.14906 6.02278 9.63675 5.53509C10.1244 5.0474 10.7458 4.71528 11.4222 4.58073C12.0987 4.44617 12.7998 4.51523 13.437 4.77917C14.0742 5.0431 14.6189 5.49006 15.002 6.06353C15.3852 6.63699 15.5897 7.3112 15.5897 8.0009C15.5887 8.92544 15.221 9.81182 14.5672 10.4656C13.9135 11.1193 13.0271 11.487 12.1026 11.4881V11.4881Z" fill="#6F7C98"/>
</svg>
