<svg width="40" height="40" viewBox="0 0 40 40" fill="none" xmlns="http://www.w3.org/2000/svg">
<path d="M30.856 26.4062C30.0747 25.7031 29.1372 25.0781 28.2779 24.6094C26.481 23.3594 24.9185 23.2812 23.6685 25.0781C22.8872 26.1719 21.8716 26.3281 20.7779 25.8594C17.731 24.4531 15.4654 22.5 14.2154 19.4531C13.5904 18.2031 13.5904 17.0312 14.9966 16.1719C15.6997 15.7031 16.481 15.0781 16.4029 13.9844C16.3247 12.5781 12.9654 7.89062 11.5591 7.42188C10.9341 7.26562 10.4654 7.26562 9.84036 7.42188C6.63724 8.51562 5.38724 11.0156 6.55911 14.0625C8.35761 18.4442 11.0211 22.4183 14.3903 25.7473C17.7596 29.0763 21.7655 31.6918 26.1685 33.4375V33.4375C27.0494 33.6966 27.9861 33.8829 28.8505 33.5732C30.4998 32.9823 32.1189 31.4521 32.731 29.9219C33.4341 28.0469 31.9497 27.2656 30.856 26.4062Z" fill="white"/>
<path d="M20.9355 10.7813C20.9355 10.7813 24.1387 10.7032 26.5605 13.1251C28.9824 15.4688 28.6699 18.9063 28.6699 18.9063M21.873 13.9844C21.873 13.9844 23.2793 13.8282 24.4512 15.0782C25.623 16.2501 25.4668 17.7344 25.4668 17.7344M19.9199 7.65632C19.9199 7.65632 24.9199 7.42195 28.5918 11.0938C32.2637 14.8438 31.9512 20.0001 31.9512 20.0001" stroke="white" stroke-width="0.603564" stroke-linecap="round"/>
</svg>
