<svg width="16" height="20" viewBox="0 0 16 20" fill="none" xmlns="http://www.w3.org/2000/svg">
<path d="M3.33317 10.5H10.7406C11.7229 10.5 12.6649 9.47098 13.3595 8.63749C14.0541 7.80399 14.4443 6.67353 14.4443 5.49479C14.4443 4.31605 14.0541 3.18559 13.3595 2.35209C12.6649 1.5186 11.7229 1.05035 10.7406 1.05035H3.33317V10.5ZM3.33317 10.5H1.5" stroke="#6F7C98" stroke-width="1.3" stroke-linecap="square" stroke-linejoin="round"/>
<path d="M3.2998 9.92749C3.2998 9.92749 3.2998 10.4056 3.2998 11.2566C3.2998 12.1076 3.2998 13.2618 3.2998 14.4653C3.2998 15.6688 3.2998 16.823 3.2998 17.674C3.2998 18.525 3.2998 19.0031 3.2998 19.0031V9.92749Z" stroke="#6F7C98" stroke-width="1.3" stroke-linecap="round" stroke-linejoin="round"/>
<path d="M12.8887 14H7.17439H0.888672" stroke="#6F7C98" stroke-width="1.3"/>
</svg>
