<svg width="50" height="50" viewBox="0 0 50 50" fill="none" xmlns="http://www.w3.org/2000/svg">
<path d="M49.9854 0H0.0146484C0.00655833 0 0 0.00655833 0 0.0146484V49.9854C0 49.9934 0.00655833 50 0.0146484 50H49.9854C49.9934 50 50 49.9934 50 49.9854V0.0146484C50 0.00655833 49.9934 0 49.9854 0Z" fill="#37AEE2"/>
<path d="M19.4336 39.4532C18.3594 39.4532 18.457 39.0626 18.1641 38.0861L15.0391 27.8322L38.9648 13.7697" fill="#C8DAEA"/>
<path d="M19.4316 39.4531C20.1152 39.4531 20.5059 39.0625 20.9941 38.6719L25.3887 34.4727L19.9199 31.1523" fill="#A9C9DD"/>
<path d="M19.9228 31.1523L33.1064 40.8203C34.4736 41.6992 35.6455 41.2109 36.0361 39.4531L41.4072 14.2578C41.8955 12.1094 40.5283 11.1328 39.0634 11.8164L7.71578 23.9258C5.66499 24.707 5.66499 25.9766 7.32515 26.4648L15.4306 29.0039L33.9853 17.1875C34.8642 16.6992 35.6455 16.8945 35.0595 17.5781" fill="#F6FBFE"/>
</svg>
