<svg width="27" height="24" viewBox="0 0 27 24" fill="none" xmlns="http://www.w3.org/2000/svg">
<path d="M24.7418 0.00223555C24.3965 0.0182966 24.0713 0.118678 23.7822 0.231105H23.7782C23.4851 0.347548 22.0918 0.933777 19.9757 1.82115C17.8597 2.71254 15.1132 3.86894 12.3869 5.0173C6.94216 7.31002 1.58981 9.5666 1.58981 9.5666L1.65406 9.54251C1.65406 9.54251 1.28465 9.66297 0.899185 9.92797C0.702438 10.0565 0.485613 10.2331 0.296896 10.5102C0.108178 10.7872 -0.0444024 11.2129 0.0118119 11.6505C0.104163 12.3933 0.585995 12.839 0.931308 13.084C1.28064 13.3329 1.6139 13.4494 1.6139 13.4494H1.62193L6.64102 15.1398C6.86587 15.8625 8.17083 20.1508 8.48402 21.1386C8.66873 21.7288 8.84941 22.0982 9.07427 22.3793C9.18268 22.5239 9.31117 22.6443 9.46375 22.7407C9.52398 22.7768 9.58822 22.8049 9.65247 22.829C9.67254 22.8411 9.69262 22.8451 9.71671 22.8491L9.66451 22.8371C9.68057 22.8411 9.69262 22.8531 9.70466 22.8571C9.74482 22.8692 9.77292 22.8732 9.82512 22.8812C10.6201 23.1221 11.2586 22.6283 11.2586 22.6283L11.2947 22.6002L14.258 19.9019L19.2249 23.7124L19.3373 23.7606C20.3732 24.2143 21.4212 23.9613 21.9753 23.5156C22.5334 23.0659 22.7503 22.4917 22.7503 22.4917L22.7864 22.3994L26.625 2.73663C26.7334 2.25078 26.7615 1.79706 26.6411 1.35538C26.5206 0.913701 26.2114 0.500129 25.838 0.279289C25.4606 0.0544338 25.0871 -0.0138255 24.7418 0.00223555V0.00223555ZM24.6374 2.11025C24.6334 2.17449 24.6455 2.16646 24.6174 2.29094V2.30298L20.8149 21.761C20.7988 21.7891 20.7707 21.8493 20.6944 21.9095C20.6141 21.9738 20.5499 22.0139 20.2166 21.8814L14.1415 17.2237L10.4716 20.5684L11.2425 15.6457C11.2425 15.6457 20.7587 6.77599 21.1682 6.39454C21.5778 6.01309 21.4413 5.93278 21.4413 5.93278C21.4694 5.46701 20.8229 5.79627 20.8229 5.79627L8.30735 13.5497L8.30334 13.5297L2.30453 11.51V11.506C2.30051 11.506 2.29248 11.502 2.28847 11.502C2.29248 11.502 2.32059 11.4899 2.32059 11.4899L2.35271 11.4739L2.38483 11.4618C2.38483 11.4618 7.7412 9.20523 13.1859 6.91251C15.9123 5.76414 18.6587 4.60775 20.7707 3.71636C22.8828 2.82898 24.4447 2.17851 24.533 2.14237C24.6174 2.11025 24.5772 2.11025 24.6374 2.11025Z" fill="#808080"/>
</svg>
