<svg width="70" height="70" viewBox="0 0 70 70" fill="none" xmlns="http://www.w3.org/2000/svg">
<path d="M59.6094 17.7188C61.4216 17.7188 62.8906 16.2497 62.8906 14.4375C62.8906 12.6253 61.4216 11.1562 59.6094 11.1562C57.7972 11.1562 56.3281 12.6253 56.3281 14.4375C56.3281 16.2497 57.7972 17.7188 59.6094 17.7188Z" fill="#D0D0D0"/>
<path d="M54.1409 16.8438C56.6779 16.8438 58.7346 14.7871 58.7346 12.25C58.7346 9.71294 56.6779 7.65625 54.1409 7.65625C51.6038 7.65625 49.5471 9.71294 49.5471 12.25C49.5471 14.7871 51.6038 16.8438 54.1409 16.8438Z" fill="#D0D0D0"/>
<path d="M52.5 13.7812C55.3995 13.7812 57.75 11.4307 57.75 8.53125C57.75 5.63176 55.3995 3.28125 52.5 3.28125C49.6005 3.28125 47.25 5.63176 47.25 8.53125C47.25 11.4307 49.6005 13.7812 52.5 13.7812Z" fill="#D0D0D0"/>
<path d="M51.5159 5.46875C54.0315 5.46875 56.1096 7 56.9846 9.1875V8.75C56.9846 6.34375 55.0159 4.48438 52.719 4.48438C51.5159 4.48438 50.3127 5.03125 49.5471 5.90625C50.094 5.57813 50.7502 5.46875 51.5159 5.46875Z" fill="#E8E8E8"/>
<path d="M52.7187 9.07837C55.2344 9.07837 57.3125 10.6096 58.1875 12.7971V12.3596C58.1875 9.95337 56.2187 8.09399 53.9219 8.09399C52.7187 8.09399 51.5156 8.64087 50.75 9.51587C51.4062 9.18774 52.0625 9.07837 52.7187 9.07837Z" fill="#E8E8E8"/>
<path d="M58.4065 12.7969C60.1565 12.7969 61.6877 13.8906 62.344 15.5312V15.2031C62.344 13.4531 60.9221 12.1406 59.2815 12.1406C58.4065 12.1406 57.5315 12.5781 56.9846 13.125C57.3127 12.9062 57.8596 12.7969 58.4065 12.7969Z" fill="#E8E8E8"/>
<path d="M68.9062 65.625H1.09375C0.4375 65.625 0 66.1719 0 66.7188V68.9062C0 69.4531 0.4375 70 1.09375 70H68.9062C69.4531 70 70 69.4531 70 68.9062V66.7188C70 66.1719 69.4531 65.625 68.9062 65.625Z" fill="#62727A"/>
<path d="M42.6562 43.75L29.5312 32.8125V43.75L16.4062 32.8125V43.75L3.28125 32.8125V65.625H55.7812V43.75H42.6562Z" fill="#FFA500"/>
<path d="M56.6562 47.25H65.8438L65.4062 38.0625H57.0938L56.6562 47.25ZM64.9688 28.875L64.5313 19.6875H57.9688L57.5312 28.875H64.9688ZM56.2188 56.4375L55.7812 65.625H66.7188L66.2812 56.4375H56.2188Z" fill="#D33B23"/>
<path d="M64.9685 28.8748H57.531L57.0935 38.0623H65.406L64.9685 28.8748ZM56.2185 56.4373H66.281L65.8435 47.2498H56.656L56.2185 56.4373Z" fill="#D0D0D0"/>
<path d="M3.28125 49.2188H42.6563V60.1563H3.28125V49.2188Z" fill="#F9F3D9"/>
<path d="M3.28125 50.3125H41.5625V59.0625H3.28125V50.3125Z" fill="#B4D7EE"/>
<path d="M45.9375 54.6875H52.5V65.625H45.9375V54.6875Z" fill="#89664C"/>
<path d="M44.8438 52.5H53.5938V54.6875H44.8438V52.5Z" fill="#444444"/>
<path d="M3.28125 54.1406H41.5625V55.2344H3.28125V54.1406Z" fill="#F9F3D9"/>
<path d="M15.8594 49.2188H16.9531V60.1563H15.8594V49.2188ZM28.9844 49.2188H30.0781V60.1563H28.9844V49.2188Z" fill="#F9F3D9"/>
<path d="M50.8594 60.1562C51.1614 60.1562 51.4062 59.9114 51.4062 59.6094C51.4062 59.3073 51.1614 59.0625 50.8594 59.0625C50.5573 59.0625 50.3125 59.3073 50.3125 59.6094C50.3125 59.9114 50.5573 60.1562 50.8594 60.1562Z" fill="#DBB471"/>
<path d="M45.9375 65.625H52.5V67.8125H45.9375V65.625Z" fill="#D0D0D0"/>
<path d="M44.8438 67.8125H53.5938V70H44.8438V67.8125Z" fill="#E8E8E8"/>
<path d="M61.7969 19.6875C63.005 19.6875 63.9844 18.7081 63.9844 17.5C63.9844 16.2919 63.005 15.3125 61.7969 15.3125C60.5888 15.3125 59.6094 16.2919 59.6094 17.5C59.6094 18.7081 60.5888 19.6875 61.7969 19.6875Z" fill="#D0D0D0"/>
<path d="M45.9375 11.1562C49.0182 11.1562 51.5156 8.65884 51.5156 5.57812C51.5156 2.49741 49.0182 0 45.9375 0C42.8568 0 40.3594 2.49741 40.3594 5.57812C40.3594 8.65884 42.8568 11.1562 45.9375 11.1562Z" fill="#D0D0D0"/>
<path d="M37.0781 12.9062C40.6421 12.9062 43.5313 10.0171 43.5313 6.45312C43.5313 2.88916 40.6421 0 37.0781 0C33.5142 0 30.625 2.88916 30.625 6.45312C30.625 10.0171 33.5142 12.9062 37.0781 12.9062Z" fill="#D0D0D0"/>
<path d="M28.9844 10.9375C32.0047 10.9375 34.4531 8.48906 34.4531 5.46875C34.4531 2.44844 32.0047 0 28.9844 0C25.9641 0 23.5156 2.44844 23.5156 5.46875C23.5156 8.48906 25.9641 10.9375 28.9844 10.9375Z" fill="#D0D0D0"/>
<path d="M20.125 15.3125C24.3534 15.3125 27.7812 11.8847 27.7812 7.65625C27.7812 3.42782 24.3534 0 20.125 0C15.8966 0 12.4688 3.42782 12.4688 7.65625C12.4688 11.8847 15.8966 15.3125 20.125 15.3125Z" fill="#D0D0D0"/>
<path d="M11.5935 20.125C17.1509 20.125 21.656 15.6199 21.656 10.0625C21.656 4.50513 17.1509 0 11.5935 0C6.03614 0 1.53101 4.50513 1.53101 10.0625C1.53101 15.6199 6.03614 20.125 11.5935 20.125Z" fill="#D0D0D0"/>
<path d="M8.85938 3.60913C14 3.60913 18.2656 6.78101 20.0156 11.3748C20.0156 11.0466 20.125 10.7185 20.125 10.3904C20.125 5.46851 16.1875 1.53101 11.2656 1.53101C8.75 1.53101 6.45312 2.62476 4.8125 4.37476C6.01562 3.82788 7.4375 3.60913 8.85938 3.60913Z" fill="#E8E8E8"/>
<path d="M18.0466 3.17188C22.0935 3.17188 25.4841 5.6875 26.7966 9.29688V8.53125C26.7966 4.70313 23.6248 1.53125 19.7966 1.53125C17.8279 1.53125 15.9685 2.40625 14.656 3.71875C15.8591 3.39062 16.9529 3.17188 18.0466 3.17188ZM27.5623 2.29687C30.406 2.29687 32.9216 4.15625 33.906 6.67188V6.125C33.906 3.28125 31.6091 1.09375 28.8748 1.09375C27.4529 1.09375 26.1404 1.75 25.2654 2.73438C25.9216 2.40625 26.6873 2.29687 27.5623 2.29687Z" fill="#E8E8E8"/>
<path d="M35.2185 2.62524C38.4998 2.62524 41.3435 4.70337 42.4373 7.65649V7.00024C42.4373 3.82837 39.9216 1.31274 36.7498 1.31274C35.1091 1.31274 33.5779 1.96899 32.5935 3.17212C33.3591 2.84399 34.3435 2.62524 35.2185 2.62524ZM44.6248 2.29712C47.4685 2.29712 49.8748 4.04712 50.7498 6.56274V6.01587C50.7498 3.28149 48.5623 1.20337 45.8279 1.20337C44.406 1.20337 43.2029 1.75024 42.2185 2.73462C42.9841 2.40649 43.7498 2.29712 44.6248 2.29712ZM60.9216 16.2971C62.1248 16.2971 63.1091 17.0627 63.5466 18.0471V17.8284C63.5466 16.7346 62.6716 15.7502 61.4685 15.7502C60.9216 15.7502 60.3748 15.969 59.9373 16.4065C60.2654 16.2971 60.5935 16.2971 60.9216 16.2971Z" fill="#E8E8E8"/>
</svg>
