<svg width="70" height="70" viewBox="0 0 70 70" fill="none" xmlns="http://www.w3.org/2000/svg">
<path d="M27.6316 26.6492H7.98246C7.30457 26.6492 6.75439 26.099 6.75439 25.4211V14.3685C6.75439 13.6906 7.30457 13.1404 7.98246 13.1404H27.6316C28.3095 13.1404 28.8597 13.6906 28.8597 14.3685V25.4211C28.8597 26.099 28.3095 26.6492 27.6316 26.6492Z" fill="#00BA2D"/>
<path d="M27.6316 27.263H7.98249C6.96687 27.263 6.14038 26.4365 6.14038 25.4209V14.3682C6.14038 13.3526 6.96687 12.5261 7.98249 12.5261H27.6316C28.6472 12.5261 29.4737 13.3526 29.4737 14.3682V25.4209C29.4737 26.4365 28.6472 27.263 27.6316 27.263ZM7.98249 13.7542C7.64354 13.7542 7.36845 14.0293 7.36845 14.3682V25.4209C7.36845 25.7598 7.64354 26.0349 7.98249 26.0349H27.6316C27.9706 26.0349 28.2456 25.7598 28.2456 25.4209V14.3682C28.2456 14.0293 27.9706 13.7542 27.6316 13.7542H7.98249Z" fill="#263238"/>
<path d="M7 46.2L13.2222 39.9L19.4444 41.3L25.6667 34.3L31.8889 36.4L38.1111 28L44.3333 46.9L50.5556 39.2L56.7778 42L63 21V63H7V46.2Z" fill="#FFA500"/>
<path d="M66.3158 70H3.68421C1.65298 70 0 67.8726 0 65.2583V4.74174C0 2.12739 1.65298 0 3.68421 0H66.3158C68.347 0 70 2.12739 70 4.74174V65.2583C70 67.8726 68.347 70 66.3158 70ZM3.68421 1.52174C2.32965 1.52174 1.22807 2.96587 1.22807 4.74174V65.2583C1.22807 67.0341 2.32965 68.4783 3.68421 68.4783H66.3158C67.6703 68.4783 68.7719 67.0341 68.7719 65.2583V4.74174C68.7719 2.96587 67.6703 1.52174 66.3158 1.52174H3.68421Z" fill="#263238"/>
<path d="M21.4912 17.4385H9.21047C8.87152 17.4385 8.59644 17.1634 8.59644 16.8245C8.59644 16.4855 8.87152 16.2104 9.21047 16.2104H21.4912C21.8301 16.2104 22.1052 16.4855 22.1052 16.8245C22.1052 17.1634 21.8301 17.4385 21.4912 17.4385Z" fill="#263238"/>
<path d="M21.4912 20.5088H9.21047C8.87152 20.5088 8.59644 20.2337 8.59644 19.8948C8.59644 19.5558 8.87152 19.2808 9.21047 19.2808H21.4912C21.8301 19.2808 22.1052 19.5558 22.1052 19.8948C22.1052 20.2337 21.8301 20.5088 21.4912 20.5088Z" fill="#263238"/>
<path d="M15.3508 23.5789H9.21047C8.87152 23.5789 8.59644 23.3038 8.59644 22.9649C8.59644 22.6259 8.87152 22.3508 9.21047 22.3508H15.3508C15.6898 22.3508 15.9649 22.6259 15.9649 22.9649C15.9649 23.3038 15.6898 23.5789 15.3508 23.5789Z" fill="#263238"/>
<path d="M44.2104 44.4559C44.1711 44.4559 44.133 44.4522 44.0937 44.4448C43.8837 44.4043 43.7093 44.2569 43.6344 44.0555L37.8625 28.4713L32.4012 35.0243C32.244 35.2134 31.9886 35.2908 31.7528 35.2196L25.9637 33.4831L20.0825 39.3643C19.9375 39.5092 19.7288 39.5694 19.5274 39.5326L13.6891 38.3647L7.77843 43.6847C7.52421 43.9106 7.1386 43.891 6.91141 43.6392C6.68422 43.3875 6.70509 42.9994 6.95685 42.7722L13.0972 37.2459C13.2421 37.1169 13.4386 37.0641 13.629 37.0997L19.4463 38.2627L25.3546 32.3545C25.5154 32.1948 25.75 32.1359 25.9649 32.201L31.7172 33.9264L37.5984 26.8687C37.7384 26.7004 37.9533 26.6194 38.1744 26.6575C38.3905 26.6943 38.5698 26.8441 38.646 27.0492L44.4351 42.6813L49.8963 36.6736C50.0682 36.4833 50.3421 36.4219 50.5791 36.5164L56.1153 38.7306L62.0505 20.9273C62.1574 20.6068 62.5025 20.4299 62.8267 20.5392C63.1484 20.6461 63.3216 20.9936 63.2147 21.3154L57.0744 39.7364C57.0216 39.8961 56.9037 40.0275 56.7502 40.0987C56.5967 40.1699 56.4211 40.1748 56.2639 40.1122L50.519 37.8145L44.6647 44.2533C44.5468 44.3834 44.3823 44.4559 44.2104 44.4559Z" fill="#263238"/>
<path d="M13.5088 58.5791C13.1699 58.5791 12.8948 58.304 12.8948 57.9651V37.7019C12.8948 37.363 13.1699 37.0879 13.5088 37.0879C13.8478 37.0879 14.1228 37.363 14.1228 37.7019V57.9651C14.1228 58.304 13.8478 58.5791 13.5088 58.5791Z" fill="#263238"/>
<path d="M19.6492 58.5791C19.3102 58.5791 19.0352 58.304 19.0352 57.965V38.93C19.0352 38.591 19.3102 38.3159 19.6492 38.3159C19.9881 38.3159 20.2632 38.591 20.2632 38.93V57.965C20.2632 58.304 19.9881 58.5791 19.6492 58.5791Z" fill="#263238"/>
<path d="M25.7896 58.579C25.4506 58.579 25.1755 58.304 25.1755 57.965V32.7896C25.1755 32.4506 25.4506 32.1755 25.7896 32.1755C26.1285 32.1755 26.4036 32.4506 26.4036 32.7896V57.965C26.4036 58.304 26.1285 58.579 25.7896 58.579Z" fill="#263238"/>
<path d="M31.93 58.579C31.591 58.579 31.3159 58.3039 31.3159 57.9649V34.6316C31.3159 34.2927 31.591 34.0176 31.93 34.0176C32.2689 34.0176 32.544 34.2927 32.544 34.6316V57.9649C32.544 58.3039 32.2689 58.579 31.93 58.579Z" fill="#263238"/>
<path d="M38.0703 58.5787C37.7314 58.5787 37.4563 58.3037 37.4563 57.9647V27.263C37.4563 26.924 37.7314 26.6489 38.0703 26.6489C38.4093 26.6489 38.6844 26.924 38.6844 27.263V57.9647C38.6844 58.3037 38.4093 58.5787 38.0703 58.5787Z" fill="#263238"/>
<path d="M44.2105 58.5791C43.8715 58.5791 43.5964 58.3041 43.5964 57.9651V43.8423C43.5964 43.5034 43.8715 43.2283 44.2105 43.2283C44.5494 43.2283 44.8245 43.5034 44.8245 43.8423V57.9651C44.8245 58.3041 44.5494 58.5791 44.2105 58.5791Z" fill="#263238"/>
<path d="M50.3509 58.5789C50.0119 58.5789 49.7368 58.3038 49.7368 57.9649V37.0877C49.7368 36.7487 50.0119 36.4736 50.3509 36.4736C50.6898 36.4736 50.9649 36.7487 50.9649 37.0877V57.9649C50.9649 58.3038 50.6898 58.5789 50.3509 58.5789Z" fill="#263238"/>
<path d="M56.4912 58.5788C56.1523 58.5788 55.8772 58.3037 55.8772 57.9648V39.5437C55.8772 39.2048 56.1523 38.9297 56.4912 38.9297C56.8302 38.9297 57.1053 39.2048 57.1053 39.5437V57.9648C57.1053 58.3037 56.8302 58.5788 56.4912 58.5788Z" fill="#263238"/>
</svg>
