<svg width="70" height="70" viewBox="0 0 70 70" fill="none" xmlns="http://www.w3.org/2000/svg">
<path d="M19.1406 67.2654H23.5156V69.4529H19.1406V67.2654Z" fill="#656D78"/>
<path opacity="0.2" d="M19.1406 67.2654H23.5156V68.3591H19.1406V67.2654Z" fill="black"/>
<path d="M46.4846 67.2654H50.8596V69.4529H46.4846V67.2654Z" fill="#656D78"/>
<path opacity="0.2" d="M46.4846 67.2654H50.8596V68.3591H46.4846V67.2654Z" fill="black"/>
<path d="M35.0107 0.546875C31.1825 0.546875 30.0889 1.64064 30.0889 1.64064L30.6683 2.86569C30.8216 2.77817 30.9856 2.73441 31.172 2.73441C31.3578 2.73441 31.5218 2.77817 31.6751 2.86569C31.6751 2.86569 31.6858 2.87636 31.7076 2.88757C31.7189 2.89824 31.7402 2.90946 31.7621 2.93134C31.8277 2.96388 31.8935 3.01831 31.9372 3.07342C31.9703 3.10597 32.0029 3.14987 32.0468 3.18297C32.0575 3.18297 32.0687 3.19363 32.0793 3.21551C32.8452 3.9157 34.4639 5.6983 34.4746 8.20311V9.35185H35.547V8.20311H35.5577C35.5577 5.69844 37.1875 3.9157 37.9524 3.21551C37.9642 3.19363 37.9748 3.18297 37.9866 3.18297C38.0293 3.14987 38.0624 3.10611 38.0955 3.07342C38.1381 3.01845 38.2045 2.96402 38.2706 2.93134C38.292 2.90946 38.3133 2.89824 38.3241 2.88757C38.3465 2.87636 38.3583 2.86569 38.3583 2.86569C38.5111 2.77817 38.6745 2.73441 38.8603 2.73441C39.0355 2.73441 39.1999 2.77817 39.3538 2.85462L39.9326 1.64064C39.9325 1.64064 38.8387 0.546875 35.0107 0.546875Z" fill="#CA9E00"/>
<path d="M37.7343 19.1406V20.2343H32.2656V19.1406C32.8669 19.1406 33.3594 18.6481 33.3594 18.0468V13.6719H36.6407V18.0468C36.6407 18.6483 37.133 19.1406 37.7343 19.1406Z" fill="#CA9E00"/>
<path opacity="0.2" d="M33.3594 15.4758C33.8581 15.7146 34.4105 15.8593 35 15.8593C35.5896 15.8593 36.1418 15.7146 36.6407 15.4764V13.6719H33.3594V15.4758Z" fill="black"/>
<path opacity="0.5" d="M33.3594 15.4758V18.0468C33.3594 18.6481 32.8669 19.1406 32.2656 19.1406H33.6671C34.2684 19.1406 34.4533 18.6481 34.4533 18.0468V15.7942C34.0697 15.7344 33.6984 15.6383 33.3594 15.4758Z" fill="white"/>
<path opacity="0.2" d="M36.6406 15.4758V18.0468C36.6406 18.6481 37.133 19.1406 37.7343 19.1406H36.3329C35.7316 19.1406 35.5469 18.6481 35.5469 18.0468V15.7942C35.9303 15.7344 36.3009 15.6383 36.6406 15.4758Z" fill="black"/>
<path opacity="0.2" d="M35.547 8.2581C35.3671 8.23239 35.1875 8.20312 35.0002 8.20312C34.8202 8.20312 34.6482 8.23198 34.4746 8.25605V9.35187H35.547V8.2581Z" fill="black"/>
<path d="M59.6092 10.3906H38.828H31.1718H10.3906L9.29688 12.5782L31.1718 13.6719H38.828L60.703 12.5782L59.6092 10.3906Z" fill="#CA9E00"/>
<path opacity="0.2" d="M38.8281 12.0313C38.8281 11.4416 38.6829 10.8895 38.4457 10.3906H31.5548C31.3166 10.8894 31.1719 11.4416 31.1719 12.0313C31.1719 12.621 31.3166 13.1732 31.5553 13.6719H38.4457C38.6829 13.1732 38.8281 12.6208 38.8281 12.0313Z" fill="black"/>
<path opacity="0.5" d="M31.2369 11.4844C31.2968 11.1009 31.3929 10.7298 31.5547 10.3906H31.1718H10.3906L9.29688 12.5782L9.83036 12.6048L10.3906 11.4844H31.1718H31.2369Z" fill="white"/>
<path opacity="0.5" d="M59.6093 10.3906H38.8282H38.4458C38.6072 10.7298 38.7032 11.1009 38.7629 11.4844H38.8282H59.6093L60.1691 12.6048L60.7031 12.5782L59.6093 10.3906Z" fill="white"/>
<path opacity="0.5" d="M35.0105 1.64064C37.6093 1.64064 38.9454 2.14431 39.5373 2.46787L39.9325 1.64064C39.9325 1.64064 38.8387 0.546875 35.0107 0.546875C31.1825 0.546875 30.0889 1.64064 30.0889 1.64064L30.4808 2.46951C31.0709 2.14595 32.4075 1.64064 35.0105 1.64064Z" fill="white"/>
<path d="M49.7656 42.1094H69.4532C69.4532 47.5461 65.046 51.953 59.6094 51.953C54.1728 51.953 49.7656 47.5461 49.7656 42.1094Z" fill="#FFA500"/>
<path opacity="0.5" d="M51.9532 42.1094H49.7656C49.7656 47.5461 54.1727 51.953 59.6093 51.953C59.9788 51.953 60.3442 51.9284 60.703 51.8889C55.7823 51.3443 51.9532 47.1755 51.9532 42.1094Z" fill="white"/>
<path opacity="0.2" d="M67.2655 42.1094H69.453C69.453 47.5461 65.0458 51.953 59.6093 51.953C59.2397 51.953 58.8745 51.9284 58.5156 51.8889C63.4363 51.3443 67.2655 47.1755 67.2655 42.1094Z" fill="black"/>
<path d="M0.546875 42.1094H20.2343C20.2343 47.5461 15.8267 51.953 10.3905 51.953C4.95435 51.953 0.546875 47.5461 0.546875 42.1094Z" fill="#FFA500"/>
<path d="M35 9.29712C36.5093 9.29712 37.7343 10.5222 37.7343 12.0314C37.7343 13.5406 36.5093 14.7658 35 14.7658C33.4908 14.7658 32.2656 13.5406 32.2656 12.0314C32.2656 10.5222 33.4908 9.29712 35 9.29712Z" fill="#656D78"/>
<path opacity="0.2" d="M33.3594 12.0314C33.3594 10.7097 34.2993 9.60578 35.5469 9.35209C35.3701 9.3164 35.1874 9.29712 35 9.29712C33.4908 9.29712 32.2656 10.5222 32.2656 12.0314C32.2656 13.5406 33.4908 14.7658 35 14.7658C35.1874 14.7658 35.3701 14.7465 35.5469 14.7108C34.2993 14.457 33.3594 13.3531 33.3594 12.0314Z" fill="white"/>
<path opacity="0.2" d="M36.6621 12.0314C36.6621 13.3533 35.7221 14.457 34.4746 14.7108C34.6513 14.7467 34.834 14.7658 35.0215 14.7658C36.5307 14.7658 37.7558 13.5406 37.7558 12.0314C37.7558 10.5222 36.5307 9.29712 35.0215 9.29712C34.834 9.29712 34.6513 9.3164 34.4746 9.35209C35.7221 9.60578 36.6621 10.7097 36.6621 12.0314Z" fill="black"/>
<path opacity="0.5" d="M2.73441 42.1094H0.546875C0.546875 47.5461 4.95435 51.953 10.3905 51.953C10.7607 51.953 11.1249 51.9284 11.4843 51.8889C6.56355 51.3443 2.73441 47.1755 2.73441 42.1094Z" fill="white"/>
<path opacity="0.2" d="M18.0469 42.1094H20.2344C20.2344 47.5461 15.8268 51.953 10.3906 51.953C10.0206 51.953 9.6564 51.9284 9.29688 51.8889C14.2177 51.3443 18.0469 47.1755 18.0469 42.1094Z" fill="black"/>
<path d="M31.1719 20.2344H38.8281C37.6148 20.2344 36.6407 21.2079 36.6407 22.4218L37.7343 48.6716L38.8281 49.7654L37.7343 50.8592V53.0467V54.1405H32.2656V53.0467V50.8592L31.1719 49.7654L32.2656 48.6716L33.3594 22.4218C33.3594 21.2079 32.3858 20.2344 31.1719 20.2344Z" fill="#CA9E00"/>
<path opacity="0.5" d="M33.3594 50.8594L32.6074 49.7656L33.3594 48.6719L34.4532 22.422C34.4532 21.2082 33.4796 20.2346 32.2656 20.2346H31.1719C32.3857 20.2346 33.3594 21.2082 33.3594 22.422L32.2656 48.6719L31.1719 49.7656L32.2656 50.8594V53.0469H33.3594V50.8594Z" fill="white"/>
<path opacity="0.2" d="M36.6406 50.8594L37.3925 49.7656L36.6406 48.6719L35.5469 22.422C35.5469 21.2082 36.521 20.2346 37.7343 20.2346H38.828C37.6148 20.2346 36.6406 21.2082 36.6406 22.422L37.7343 48.6719L38.828 49.7656L37.7343 50.8594V53.0469H36.6406V50.8594Z" fill="black"/>
<path d="M30.0782 58.5154V57.4216H32.2656H37.7343H39.9218V58.5154H41.0156H51.9531V67.2654H18.0469V58.5154H28.9844H30.0782Z" fill="#58595B"/>
<path d="M35.0324 12.5781C34.7306 12.5781 34.4802 12.3335 34.4802 12.0313C34.4802 11.729 34.7194 11.4844 35.0218 11.4844H35.0324C35.3347 11.4844 35.5793 11.729 35.5793 12.0313C35.5793 12.3335 35.3347 12.5781 35.0324 12.5781Z" fill="#3A3847"/>
<path d="M9.11744 15.8296C9.05809 15.8296 8.99724 15.82 8.93802 15.7991C8.65289 15.7003 8.50177 15.3884 8.60106 15.1033L8.78048 14.5863C8.87867 14.3012 9.1902 14.1479 9.47629 14.2494C9.76142 14.3481 9.91254 14.6601 9.81325 14.9452L9.63383 15.4621C9.55588 15.688 9.34391 15.8296 9.11744 15.8296Z" fill="#3A3847"/>
<path d="M1.09108 38.904C1.03118 38.904 0.97087 38.8944 0.911655 38.873C0.626521 38.7746 0.475406 38.4628 0.57469 38.1777L0.939416 37.1288C1.03884 36.8435 1.35228 36.6918 1.63536 36.7922C1.92104 36.8906 2.07161 37.2025 1.97233 37.4876L1.6076 38.5365C1.52897 38.7619 1.31754 38.904 1.09108 38.904ZM1.82053 36.8062C1.76063 36.8062 1.70046 36.7966 1.64111 36.7751C1.35543 36.6769 1.20486 36.365 1.30414 36.0799L1.66887 35.031C1.76815 34.7458 2.08269 34.5957 2.36468 34.694C2.6505 34.7934 2.80106 35.1047 2.70178 35.3898L2.33705 36.4387C2.25842 36.6642 2.047 36.8062 1.82053 36.8062ZM2.55012 34.7085C2.49022 34.7085 2.42991 34.6989 2.37069 34.6781C2.08501 34.5787 1.93445 34.2675 2.03373 33.9822L2.39846 32.9333C2.49829 32.6481 2.81132 32.4974 3.0944 32.5963C3.38008 32.6957 3.53065 33.007 3.43137 33.2921L3.06664 34.3409C2.98801 34.5669 2.77658 34.7085 2.55012 34.7085ZM3.27957 32.6112C3.21981 32.6112 3.1595 32.6016 3.0996 32.5807C2.81447 32.4813 2.66376 32.1695 2.76318 31.8842L3.12846 30.8354C3.22788 30.5503 3.53968 30.3991 3.82481 30.499C4.10995 30.5984 4.26065 30.9102 4.16123 31.1955L3.79596 32.2443C3.7176 32.4697 3.50604 32.6112 3.27957 32.6112ZM4.0097 30.5134C3.94981 30.5134 3.8895 30.5038 3.83028 30.4829C3.5446 30.3835 3.3939 30.0722 3.49332 29.7871L3.85804 28.7382C3.95787 28.453 4.27091 28.3008 4.55399 28.4012C4.83967 28.5006 4.99024 28.8119 4.89095 29.0972L4.52623 30.1461C4.44759 30.3718 4.23603 30.5134 4.0097 30.5134ZM4.73916 28.4157C4.67939 28.4157 4.61909 28.4061 4.55973 28.3852C4.27405 28.2859 4.12349 27.9745 4.22277 27.6894L4.58749 26.6405C4.68692 26.3553 4.99926 26.2052 5.28331 26.3035C5.56899 26.4028 5.71955 26.7142 5.62027 26.9993L5.25554 28.0482C5.17718 28.2742 4.96562 28.4157 4.73916 28.4157ZM5.46874 26.3179C5.40885 26.3179 5.34854 26.3083 5.28932 26.2874C5.00364 26.1881 4.85294 25.8767 4.95236 25.5916L5.31708 24.5427C5.41691 24.2575 5.73036 24.1068 6.01289 24.2057C6.29857 24.305 6.44914 24.6164 6.34986 24.9015L5.98513 25.9504C5.90663 26.1765 5.69521 26.3179 5.46874 26.3179ZM6.19833 24.2202C6.13843 24.2202 6.07813 24.2106 6.01891 24.1897C5.73323 24.0903 5.58266 23.779 5.68195 23.4937L6.04667 22.4448C6.14609 22.1592 6.45844 22.0086 6.74248 22.1079C7.02816 22.2073 7.17887 22.5185 7.07945 22.8037L6.71472 23.8526C6.63622 24.0786 6.42466 24.2202 6.19833 24.2202ZM6.92779 22.1229C6.86789 22.1229 6.80771 22.1133 6.74782 22.0924C6.46268 21.993 6.31198 21.6812 6.4114 21.3959L6.77667 20.3472C6.87541 20.0624 7.18694 19.9124 7.47303 20.0107C7.75816 20.1102 7.90887 20.422 7.80945 20.7072L7.44417 21.7561C7.36567 21.9814 7.15425 22.1229 6.92779 22.1229ZM7.65778 20.0251C7.59789 20.0251 7.53758 20.0155 7.47836 19.9946C7.19268 19.8952 7.04211 19.5839 7.1414 19.2988L7.50612 18.25C7.60554 17.9642 7.91789 17.8142 8.20207 17.9129C8.48775 18.0123 8.63832 18.3236 8.53903 18.6089L8.17431 19.6578C8.09581 19.8836 7.88425 20.0251 7.65778 20.0251ZM8.38724 17.9273C8.32747 17.9273 8.26716 17.9177 8.20781 17.8969C7.92213 17.7975 7.77156 17.4862 7.87085 17.2011L8.23557 16.1522C8.33541 15.8665 8.64898 15.7159 8.93138 15.8152C9.21706 15.9146 9.36763 16.2259 9.26835 16.511L8.90362 17.5599C8.82526 17.7859 8.61384 17.9273 8.38724 17.9273Z" fill="#3A3847"/>
<path d="M0.546942 40.4687C0.48759 40.4687 0.426734 40.4591 0.367519 40.4387C0.0823847 40.3393 -0.0688664 40.0275 0.0305545 39.7422L0.209977 39.2255C0.308167 38.9402 0.618465 38.7874 0.905787 38.8878C1.19106 38.9872 1.34217 39.299 1.24275 39.5843L1.06333 40.1012C0.985378 40.3277 0.773408 40.4687 0.546942 40.4687Z" fill="#3A3847"/>
<path d="M11.6639 15.8296C11.4374 15.8296 11.2253 15.6881 11.1475 15.4621L10.9681 14.9452C10.8686 14.6601 11.0199 14.3481 11.305 14.2494C11.5897 14.1479 11.9021 14.3011 12.0008 14.5864L12.1803 15.1033C12.2795 15.3884 12.1284 15.7004 11.8432 15.7991C11.7841 15.82 11.7232 15.8296 11.6639 15.8296Z" fill="#3A3847"/>
<path d="M19.6902 38.9041C19.4637 38.9041 19.2523 38.762 19.1738 38.5366L18.8091 37.4877C18.7098 37.2026 18.8604 36.8907 19.1462 36.7923C19.4291 36.692 19.7427 36.8436 19.842 37.1289L20.2067 38.1778C20.306 38.4629 20.1549 38.7747 19.8698 38.8731C19.8104 38.8945 19.7501 38.9041 19.6902 38.9041ZM18.9607 36.8063C18.7343 36.8063 18.5229 36.6643 18.4444 36.4388L18.0796 35.3899C17.9802 35.1048 18.1309 34.7934 18.4166 34.6941C18.7008 34.5954 19.0131 34.7454 19.1125 35.0311L19.4773 36.08C19.5767 36.3651 19.426 36.677 19.1403 36.7752C19.081 36.7967 19.0205 36.8063 18.9607 36.8063ZM18.2312 34.7086C18.0047 34.7086 17.7931 34.5671 17.7148 34.3411L17.35 33.2924C17.2508 33.0072 17.4013 32.6958 17.687 32.5965C17.9732 32.4962 18.2835 32.6484 18.3828 32.9335L18.7475 33.9824C18.8468 34.2676 18.6963 34.579 18.4106 34.6784C18.3514 34.6989 18.2909 34.7086 18.2312 34.7086ZM17.5017 32.6113C17.2752 32.6113 17.0638 32.4698 16.9853 32.2444L16.62 31.1956C16.5206 30.9104 16.6713 30.5986 16.9565 30.4991C17.2438 30.3988 17.5535 30.5504 17.653 30.8356L18.0182 31.8843C18.1176 32.1696 17.9669 32.4814 17.6818 32.5808C17.6219 32.6017 17.5615 32.6113 17.5017 32.6113ZM16.7717 30.5135C16.5452 30.5135 16.3337 30.372 16.2553 30.146L15.8906 29.0971C15.7912 28.812 15.9419 28.5006 16.2276 28.4012C16.5106 28.3003 16.8246 28.453 16.9234 28.7381L17.2881 29.7871C17.3875 30.0722 17.2368 30.3836 16.9511 30.4829C16.8918 30.5039 16.8315 30.5135 16.7717 30.5135ZM16.0421 28.4158C15.8157 28.4158 15.6042 28.2743 15.5257 28.0483L15.161 26.9994C15.0616 26.7143 15.2123 26.4029 15.498 26.3036C15.7821 26.2049 16.0945 26.3549 16.1938 26.6406L16.5585 27.6895C16.6579 27.9746 16.5072 28.286 16.2215 28.3853C16.1623 28.4061 16.102 28.4158 16.0421 28.4158ZM15.3125 26.318C15.0862 26.318 14.8746 26.1764 14.7961 25.9505L14.4314 24.9016C14.332 24.6165 14.4827 24.3051 14.7684 24.2058C15.0509 24.1064 15.3649 24.2571 15.4642 24.5428L15.8289 25.5917C15.9283 25.8768 15.7776 26.1882 15.492 26.2875C15.4327 26.3084 15.3724 26.318 15.3125 26.318ZM14.5831 24.2203C14.3566 24.2203 14.1452 24.0788 14.0667 23.8528L13.702 22.8039C13.6027 22.5188 13.7532 22.2074 14.0389 22.1081C14.3224 22.0083 14.636 22.1594 14.7347 22.4451L15.0995 23.494C15.1987 23.7791 15.0482 24.0905 14.7625 24.1899C14.7033 24.2107 14.643 24.2203 14.5831 24.2203ZM13.8535 22.123C13.6272 22.123 13.4156 21.9815 13.3371 21.7561L12.9718 20.7072C12.8724 20.4219 13.0231 20.1101 13.3082 20.0107C13.5941 19.9118 13.9053 20.0625 14.0047 20.3471L14.37 21.3959C14.4694 21.6812 14.3187 21.993 14.0336 22.0924C13.9737 22.1135 13.9134 22.123 13.8535 22.123ZM13.1235 20.0252C12.897 20.0252 12.6855 19.8837 12.6071 19.6577L12.2424 18.6088C12.1431 18.3237 12.2937 18.0123 12.5793 17.9129C12.8628 17.8136 13.1759 17.9642 13.2752 18.25L13.6399 19.2988C13.7392 19.5839 13.5886 19.8953 13.3028 19.9946C13.2437 20.0156 13.1833 20.0252 13.1235 20.0252ZM12.3939 17.9274C12.1676 17.9274 11.956 17.7858 11.8775 17.5599L11.5128 16.511C11.4134 16.2259 11.5641 15.9145 11.8498 15.8152C12.1345 15.7154 12.4463 15.8665 12.5457 16.1522L12.9104 17.2011C13.0098 17.4862 12.8591 17.7976 12.5735 17.8969C12.5141 17.9178 12.4538 17.9274 12.3939 17.9274Z" fill="#3A3847"/>
<path d="M20.2344 40.4687C20.008 40.4687 19.7958 40.3277 19.718 40.1012L19.5386 39.5843C19.4392 39.299 19.5904 38.9872 19.8756 38.8878C20.1613 38.7874 20.4726 38.9402 20.5715 39.2255L20.7509 39.7422C20.8502 40.0275 20.6991 40.3393 20.414 40.4387C20.3545 40.4591 20.2936 40.4687 20.2344 40.4687Z" fill="#3A3847"/>
<path d="M58.3361 15.8296C58.2762 15.8296 58.2164 15.82 58.1566 15.7991C57.8715 15.7003 57.7208 15.3884 57.8191 15.1033L57.9986 14.5863C58.0969 14.3012 58.4088 14.1479 58.695 14.2494C58.9802 14.3481 59.1309 14.6601 59.0326 14.9452L58.8531 15.4621C58.774 15.688 58.5625 15.8296 58.3361 15.8296Z" fill="#3A3847"/>
<path d="M50.3104 38.904C50.2505 38.904 50.1897 38.8944 50.131 38.873C49.8448 38.7746 49.6942 38.4628 49.7935 38.1777L50.1588 37.1288C50.2571 36.8435 50.5701 36.6918 50.8542 36.7922C51.1393 36.8906 51.291 37.2025 51.1906 37.4876L50.8264 38.5365C50.7483 38.7619 50.5369 38.904 50.3104 38.904ZM51.0388 36.8062C50.979 36.8062 50.9193 36.7966 50.8594 36.7751C50.5742 36.6769 50.4235 36.365 50.5229 36.0799L50.8871 35.031C50.9874 34.7458 51.3015 34.5957 51.5836 34.694C51.8698 34.7934 52.0193 35.1047 51.9211 35.3898L51.5559 36.4387C51.4768 36.6642 51.2654 36.8062 51.0388 36.8062ZM51.7695 34.7085C51.7096 34.7085 51.6487 34.6989 51.59 34.6781C51.3037 34.5787 51.1531 34.2675 51.2524 33.9822L51.6177 32.9333C51.716 32.6481 52.03 32.4974 52.3131 32.5963C52.5983 32.6957 52.7499 33.007 52.6495 33.2921L52.2853 34.3409C52.2074 34.5669 51.9958 34.7085 51.7695 34.7085ZM52.498 32.6112C52.4381 32.6112 52.3783 32.6016 52.3185 32.5807C52.0333 32.4813 51.8827 32.1695 51.982 31.8842L52.3474 30.8354C52.4468 30.5503 52.7586 30.3991 53.0437 30.499C53.329 30.5984 53.4797 30.9102 53.3803 31.1955L53.0149 32.2443C52.9359 32.4697 52.7243 32.6112 52.498 32.6112ZM53.2285 30.5134C53.1686 30.5134 53.1088 30.5038 53.0491 30.4829C52.7629 30.3835 52.6132 30.0722 52.7116 29.7871L53.0768 28.7382C53.1763 28.453 53.4893 28.3008 53.7733 28.4012C54.0585 28.5006 54.2092 28.8119 54.1098 29.0972L53.7456 30.1461C53.6664 30.3718 53.455 30.5134 53.2285 30.5134ZM53.9581 28.4157C53.8982 28.4157 53.8373 28.4061 53.7787 28.3852C53.4935 28.2859 53.3419 27.9745 53.4423 27.6894L53.8064 26.6405C53.9059 26.3553 54.2197 26.2052 54.5018 26.3035C54.7881 26.4028 54.9386 26.7142 54.8393 26.9993L54.4741 28.0482C54.396 28.2742 54.1844 28.4157 53.9581 28.4157ZM54.6875 26.3179C54.6276 26.3179 54.568 26.3083 54.5081 26.2874C54.2218 26.1881 54.0721 25.8767 54.1705 25.5916L54.5359 24.5427C54.6352 24.2575 54.9482 24.1068 55.2322 24.2057C55.5175 24.305 55.6681 24.6164 55.5688 24.9015L55.2045 25.9504C55.1254 26.1765 54.914 26.3179 54.6875 26.3179ZM55.4171 24.2202C55.3572 24.2202 55.2964 24.2106 55.2377 24.1897C54.9526 24.0903 54.8009 23.779 54.9013 23.4937L55.2655 22.4448C55.3649 22.1592 55.6787 22.0086 55.9607 22.1079C56.2471 22.2073 56.3977 22.5185 56.2984 22.8037L55.9331 23.8526C55.855 24.0786 55.6435 24.2202 55.4171 24.2202ZM56.1466 22.1229C56.0867 22.1229 56.0269 22.1133 55.9672 22.0924C55.6809 21.993 55.5315 21.6812 55.6297 21.3959L55.9949 20.3472C56.0953 20.0624 56.4052 19.9124 56.6914 20.0107C56.9776 20.1102 57.1273 20.422 57.0289 20.7072L56.6637 21.7561C56.5845 21.9814 56.3731 22.1229 56.1466 22.1229ZM56.8773 20.0251C56.8174 20.0251 56.7565 20.0155 56.6978 19.9946C56.4116 19.8952 56.261 19.5839 56.3603 19.2988L56.7256 18.25C56.8239 17.9642 57.1379 17.8142 57.421 17.9129C57.7061 18.0123 57.8578 18.3236 57.7574 18.6089L57.3932 19.6578C57.3152 19.8836 57.1036 20.0251 56.8773 20.0251ZM57.6056 17.9273C57.5459 17.9273 57.4861 17.9177 57.4262 17.8969C57.1409 17.7975 56.9902 17.4862 57.0896 17.2011L57.454 16.1522C57.5543 15.8665 57.8663 15.7159 58.1503 15.8152C58.4367 15.9146 58.5862 16.2259 58.488 16.511L58.1226 17.5599C58.0435 17.7859 57.8321 17.9273 57.6056 17.9273Z" fill="#3A3847"/>
<path d="M49.7656 40.4687C49.7057 40.4687 49.646 40.4591 49.5862 40.4387C49.3009 40.3393 49.1502 40.0275 49.2486 39.7422L49.428 39.2255C49.5263 38.9402 49.837 38.7874 50.1243 38.8878C50.4096 38.9872 50.5603 39.299 50.462 39.5843L50.2826 40.1012C50.2035 40.3277 49.992 40.4687 49.7656 40.4687Z" fill="#3A3847"/>
<path d="M60.8827 15.8296C60.6562 15.8296 60.4448 15.6881 60.3657 15.4621L60.1863 14.9452C60.088 14.6601 60.2387 14.3481 60.524 14.2494C60.808 14.1479 61.1209 14.3011 61.2203 14.5864L61.3997 15.1033C61.4981 15.3884 61.3474 15.7004 61.0621 15.7991C61.0022 15.82 60.9423 15.8296 60.8827 15.8296Z" fill="#3A3847"/>
<path d="M68.9081 38.9041C68.6818 38.9041 68.4704 38.762 68.3924 38.5366L68.0281 37.4877C67.9277 37.2026 68.0794 36.8907 68.3647 36.7923C68.6498 36.692 68.9616 36.8436 69.0599 37.1289L69.4253 38.1778C69.5246 38.4629 69.3741 38.7747 69.0877 38.8731C69.0289 38.8945 68.968 38.9041 68.9081 38.9041ZM68.1798 36.8063C67.9533 36.8063 67.7419 36.6643 67.6628 36.4388L67.2976 35.3899C67.1992 35.1048 67.3488 34.7934 67.6351 34.6941C67.918 34.5954 68.2311 34.7454 68.3316 35.0311L68.6957 36.08C68.7952 36.3651 68.6445 36.677 68.3593 36.7752C68.2994 36.7967 68.2397 36.8063 68.1798 36.8063ZM67.4492 34.7086C67.2228 34.7086 67.0112 34.5671 66.9332 34.3411L66.5691 33.2924C66.4688 33.0072 66.6204 32.6958 66.9055 32.5965C67.1908 32.4962 67.5027 32.6484 67.6009 32.9335L67.9662 33.9824C68.0656 34.2676 67.9149 34.579 67.6286 34.6784C67.5698 34.6989 67.5091 34.7086 67.4492 34.7086ZM66.7207 32.6113C66.4944 32.6113 66.2828 32.4698 66.2038 32.2444L65.8385 31.1956C65.7391 30.9104 65.8898 30.5986 66.1749 30.4991C66.4624 30.3988 66.772 30.5504 66.8714 30.8356L67.2367 31.8843C67.3361 32.1696 67.1854 32.4814 66.9003 32.5808C66.8404 32.6017 66.7806 32.6113 66.7207 32.6113ZM65.99 30.5135C65.7637 30.5135 65.5522 30.372 65.4733 30.146L65.1089 29.0971C65.0095 28.812 65.1602 28.5006 65.4455 28.4012C65.7306 28.3003 66.0424 28.453 66.1418 28.7381L66.5073 29.7871C66.6054 30.0722 66.456 30.3836 66.1696 30.4829C66.1097 30.5039 66.0499 30.5135 65.99 30.5135ZM65.2606 28.4158C65.0341 28.4158 64.8227 28.2743 64.7448 28.0483L64.3795 26.9994C64.2801 26.7143 64.4308 26.4029 64.717 26.3036C64.999 26.2049 65.313 26.3549 65.4124 26.6406L65.7766 27.6895C65.877 27.9746 65.7253 28.286 65.4402 28.3853C65.3814 28.4061 65.3205 28.4158 65.2606 28.4158ZM64.5311 26.318C64.3047 26.318 64.0931 26.1764 64.0141 25.9505L63.6499 24.9016C63.5505 24.6165 63.7012 24.3051 63.9863 24.2058C64.2705 24.1064 64.5834 24.2571 64.6828 24.5428L65.0481 25.5917C65.1464 25.8768 64.9968 26.1882 64.7106 26.2875C64.6507 26.3084 64.5909 26.318 64.5311 26.318ZM63.8016 24.2203C63.5751 24.2203 63.3637 24.0788 63.2857 23.8528L62.9204 22.8039C62.821 22.5188 62.9716 22.2074 63.258 22.1081C63.5399 22.0083 63.8539 22.1594 63.9532 22.4451L64.3175 23.494C64.4179 23.7791 64.2663 24.0905 63.981 24.1899C63.9222 24.2107 63.8615 24.2203 63.8016 24.2203ZM63.072 22.123C62.8456 22.123 62.6341 21.9815 62.555 21.7561L62.1898 20.7072C62.0914 20.4219 62.241 20.1101 62.5274 20.0107C62.8136 19.9118 63.1233 20.0625 63.2238 20.3471L63.589 21.3959C63.6874 21.6812 63.5379 21.993 63.2515 22.0924C63.1916 22.1135 63.1319 22.123 63.072 22.123ZM62.3416 20.0252C62.1151 20.0252 61.9037 19.8837 61.8257 19.6577L61.4615 18.6088C61.3612 18.3237 61.5128 18.0123 61.798 17.9129C62.0809 17.8136 62.395 17.9642 62.4934 18.25L62.8586 19.2988C62.9579 19.5839 62.8073 19.8953 62.5211 19.9946C62.4622 20.0156 62.4013 20.0252 62.3416 20.0252ZM61.6131 17.9274C61.3867 17.9274 61.1752 17.7858 61.0961 17.5599L60.7309 16.511C60.6325 16.2259 60.7821 15.9145 61.0684 15.8152C61.3525 15.7154 61.6643 15.8665 61.7649 16.1522L62.129 17.2011C62.2285 17.4862 62.0778 17.7976 61.7926 17.8969C61.7327 17.9178 61.6728 17.9274 61.6131 17.9274Z" fill="#3A3847"/>
<path d="M69.4531 40.4687C69.2267 40.4687 69.0151 40.3277 68.9361 40.1012L68.7566 39.5843C68.6583 39.299 68.809 38.9872 69.0941 38.8878C69.3794 38.7874 69.6923 38.9402 69.7906 39.2255L69.9701 39.7422C70.0684 40.0275 69.9177 40.3393 69.6325 40.4387C69.5726 40.4591 69.5129 40.4687 69.4531 40.4687Z" fill="#3A3847"/>
<path d="M32.2656 54.1406H37.7343V57.4218H32.2656V54.1406Z" fill="#AAB2BD"/>
<path d="M32.0794 3.21586C32.2 3.39104 32.2657 3.59877 32.2657 3.82839C32.2657 4.4297 31.7732 4.92215 31.1719 4.92215C30.57 4.92215 30.0781 4.4297 30.0781 3.82839C30.0781 3.41279 30.3184 3.04054 30.6682 2.8659C30.8215 2.77838 30.9855 2.73462 31.1719 2.73462C31.3577 2.73462 31.5217 2.77838 31.675 2.8659C31.675 2.8659 31.6857 2.87657 31.7076 2.88778C31.7188 2.89845 31.7401 2.90967 31.762 2.93155C31.8058 2.96409 31.8609 3.01852 31.9372 3.07363C31.9703 3.10618 32.0028 3.15008 32.0467 3.18318C32.0574 3.18331 32.0686 3.19398 32.0794 3.21586Z" fill="#656D78"/>
<path d="M11.298 7.59062C11.4186 7.7658 11.4844 7.97353 11.4844 8.20314C11.4844 8.80445 10.992 9.29691 10.3906 9.29691C9.78878 9.29691 9.29688 8.80445 9.29688 8.20314C9.29688 7.78768 9.53715 7.41543 9.88697 7.2408C10.0403 7.15314 10.2042 7.10938 10.3906 7.10938C10.5765 7.10938 10.7405 7.15314 10.8938 7.2408C10.8938 7.2408 10.9044 7.25146 10.9263 7.26268C10.9375 7.27334 10.9589 7.28456 10.9807 7.30644C11.0245 7.33899 11.0796 7.39342 11.1559 7.44853C11.189 7.48108 11.2216 7.52484 11.2653 7.55793C11.2761 7.55807 11.2873 7.56874 11.298 7.59062Z" fill="#656D78"/>
<path d="M60.5173 7.59062C60.6368 7.7658 60.703 7.97353 60.703 8.20314C60.703 8.80445 60.2106 9.29691 59.6093 9.29691C59.0068 9.29691 58.5156 8.80445 58.5156 8.20314C58.5156 7.78768 58.7559 7.41543 59.1052 7.2408C59.259 7.15314 59.4235 7.10938 59.6094 7.10938C59.7952 7.10938 59.9598 7.15314 60.1125 7.2408C60.1125 7.2408 60.1232 7.25146 60.1456 7.26268C60.1563 7.27334 60.1776 7.28456 60.1991 7.30644C60.2439 7.33899 60.2985 7.39342 60.3743 7.44853C60.4085 7.48108 60.4405 7.52484 60.4844 7.55793C60.4949 7.55807 60.5066 7.56874 60.5173 7.59062Z" fill="#656D78"/>
<path d="M38.0955 3.07363C38.1724 3.01866 38.2258 2.96423 38.2707 2.93155C38.292 2.90967 38.3133 2.89845 38.3242 2.88778C38.3466 2.87657 38.3583 2.8659 38.3583 2.8659C38.5111 2.77838 38.6745 2.73462 38.8604 2.73462C39.0355 2.73462 39.1999 2.77838 39.3538 2.85483C39.7137 3.02987 39.9541 3.40171 39.9541 3.82839C39.9541 4.4297 39.4628 4.92215 38.8604 4.92215C38.26 4.92215 37.7666 4.4297 37.7666 3.82839C37.7666 3.59864 37.8328 3.39091 37.9525 3.21586C37.9642 3.19398 37.9749 3.18331 37.9866 3.18331C38.0293 3.15008 38.0624 3.10618 38.0955 3.07363Z" fill="#656D78"/>
<path opacity="0.2" d="M32.2656 19.1406H37.7343V20.2344H32.2656V19.1406Z" fill="black"/>
<path opacity="0.2" d="M32.2656 53.0469H37.7343V54.1406H32.2656V53.0469Z" fill="black"/>
<path opacity="0.2" d="M32.2656 56.3281H37.7343V57.4219H32.2656V56.3281Z" fill="black"/>
<path opacity="0.5" d="M32.2656 54.1406H33.3594V56.328H32.2656V54.1406Z" fill="white"/>
<path opacity="0.2" d="M36.6409 54.1406H37.7345V56.328H36.6409V54.1406Z" fill="black"/>
<path opacity="0.2" d="M18.0469 58.5156H19.1406V67.2655H18.0469V58.5156Z" fill="white"/>
<path opacity="0.2" d="M50.8594 58.5156H51.9531V67.2655H50.8594V58.5156Z" fill="black"/>
<path opacity="0.2" d="M30.0784 57.4216H31.1721V61.2497H30.0784V57.4216Z" fill="white"/>
<path opacity="0.2" d="M38.8281 57.4216H39.9219V61.2497H38.8281V57.4216Z" fill="black"/>
<path d="M39.9218 2.18753C39.7819 2.18753 39.642 2.13406 39.5352 2.02726C39.533 2.02671 38.4703 1.09377 35 1.09377C31.5297 1.09377 30.4664 2.02671 30.4557 2.03587C30.2366 2.23513 29.8923 2.2287 29.6872 2.01399C29.482 1.79942 29.4816 1.46396 29.6914 1.25404C29.8195 1.12577 31.0591 0 35 0C38.9412 0 40.1802 1.12577 40.3084 1.25404C40.522 1.46766 40.522 1.81378 40.3084 2.02726C40.2016 2.1342 40.0617 2.18753 39.9218 2.18753Z" fill="#3A3847"/>
<path d="M37.9748 3.7299C37.8647 3.7299 37.7515 3.69625 37.6555 3.62678C37.4097 3.45009 37.3553 3.10821 37.5316 2.86314C37.6736 2.66608 37.8648 2.50156 38.0687 2.399C38.3391 2.26498 38.667 2.37329 38.8026 2.64256C38.9382 2.91224 38.8292 3.24072 38.5591 3.37638C38.5121 3.39991 38.4577 3.44955 38.4192 3.50288C38.3112 3.6514 38.1445 3.7299 37.9748 3.7299Z" fill="#3A3847"/>
<path d="M38.8494 5.4688C37.9459 5.4688 37.2087 4.73292 37.2087 3.82829C37.2087 3.49392 37.3071 3.17515 37.4907 2.90642C37.574 2.78471 37.6979 2.70717 37.8325 2.67996C37.8751 2.56194 37.9586 2.45773 38.0759 2.39099C38.311 2.25588 38.5716 2.1875 38.8493 2.1875C39.755 2.1875 40.4899 2.92338 40.4899 3.82815C40.4902 4.73292 39.7551 5.4688 38.8494 5.4688ZM38.4564 3.40202C38.4414 3.44428 38.42 3.48585 38.3922 3.52483C38.3334 3.61194 38.3025 3.71396 38.3025 3.82829C38.3025 4.12997 38.5483 4.37517 38.8494 4.37517C39.1516 4.37517 39.3963 4.13011 39.3963 3.82829C39.3963 3.4384 38.9349 3.15901 38.6187 3.34076C38.5664 3.36988 38.512 3.39026 38.4564 3.40202Z" fill="#3A3847"/>
<path d="M35.5469 8.75014C35.2445 8.75014 35 8.50548 35 8.20325C35 5.47102 36.7879 3.53293 37.5657 2.81948C37.5774 2.80717 37.5903 2.79596 37.603 2.78474L37.6019 2.78365C37.7813 2.6164 37.9117 2.50905 37.9714 2.46159C37.9885 2.44723 38.0078 2.43383 38.028 2.42152C38.2459 2.26453 38.5503 2.28805 38.7426 2.48881C38.9519 2.70734 38.9435 3.05333 38.7233 3.26216C38.7031 3.28199 38.67 3.30646 38.638 3.32889C38.5824 3.37375 38.4819 3.45867 38.3484 3.58244C38.3463 3.58462 38.3442 3.58668 38.3409 3.58886C38.3324 3.59898 38.3216 3.6091 38.311 3.61936C37.6446 4.22929 36.0935 5.89661 36.0935 8.20325C36.0936 8.50548 35.8491 8.75014 35.5469 8.75014Z" fill="#3A3847"/>
<path d="M32.0367 3.7299C31.8674 3.7299 31.7007 3.65141 31.5934 3.50398C31.5534 3.44901 31.4994 3.40046 31.4524 3.37694C31.1821 3.24182 31.0727 2.91334 31.2077 2.64311C31.3427 2.37288 31.6723 2.26444 31.9415 2.39846C32.145 2.50047 32.3357 2.66499 32.4789 2.86206C32.6561 3.10616 32.6017 3.44846 32.357 3.6257C32.2605 3.69626 32.1478 3.7299 32.0367 3.7299Z" fill="#3A3847"/>
<path d="M31.1612 5.46891C30.2564 5.46891 29.5205 4.73303 29.5205 3.82839C29.5205 2.92362 30.2564 2.18774 31.1612 2.18774C31.4389 2.18774 31.6996 2.25612 31.9356 2.39124C32.0531 2.45852 32.1358 2.56218 32.1786 2.6802C32.3121 2.70741 32.4354 2.78441 32.5189 2.90557C32.704 3.17416 32.8018 3.49348 32.8018 3.82853C32.8018 4.73303 32.0659 5.46891 31.1612 5.46891ZM31.1612 3.28137C30.8593 3.28137 30.6143 3.52644 30.6143 3.82826C30.6143 4.12994 30.8593 4.37514 31.1612 4.37514C31.463 4.37514 31.708 4.13008 31.708 3.82826C31.708 3.71393 31.6775 3.61246 31.6183 3.52589C31.5911 3.48637 31.5698 3.4448 31.5543 3.40145C31.4988 3.39023 31.4448 3.36999 31.393 3.34059C31.3214 3.29956 31.2498 3.28137 31.1612 3.28137Z" fill="#3A3847"/>
<path d="M34.4638 8.74995C34.1625 8.74995 33.918 8.50639 33.9169 8.20526C33.9068 5.88685 32.3628 4.22541 31.6995 3.61931C31.6878 3.60864 31.6766 3.59743 31.6659 3.58567C31.6648 3.58458 31.6637 3.58348 31.6627 3.58252C31.5287 3.45753 31.4267 3.37261 31.3712 3.32789C31.3359 3.30327 31.3006 3.27551 31.2776 3.25253C31.064 3.03892 31.064 2.6928 31.2776 2.47918C31.4721 2.28691 31.7727 2.26831 31.9864 2.42366C32.0052 2.43542 32.0228 2.44773 32.0399 2.46154C32.0991 2.509 32.2305 2.61635 32.4094 2.7836L32.4083 2.78524C32.4217 2.79646 32.4345 2.80822 32.4468 2.82053C33.2216 3.53124 34.999 5.46086 35.0108 8.20115C35.0117 8.50311 34.7516 8.70934 34.4638 8.74995Z" fill="#3A3847"/>
<path d="M35.0001 15.3125C33.1906 15.3125 31.7188 13.8406 31.7188 12.0312C31.7188 10.2219 33.1906 8.75 35.0001 8.75C36.8093 8.75 38.2812 10.2219 38.2812 12.0312C38.2812 13.8406 36.8093 15.3125 35.0001 15.3125ZM35.0001 9.84363C33.7936 9.84363 32.8125 10.8247 32.8125 12.0312C32.8125 13.2376 33.7936 14.2187 35.0001 14.2187C36.2069 14.2187 37.1874 13.2376 37.1874 12.0312C37.1874 10.8247 36.2069 9.84363 35.0001 9.84363Z" fill="#3A3847"/>
<path d="M31.1718 10.9375H10.3906C10.0884 10.9375 9.84375 10.6929 9.84375 10.3906C9.84375 10.0884 10.0884 9.84375 10.3906 9.84375H31.1718C31.474 9.84375 31.7187 10.0884 31.7187 10.3906C31.7187 10.6929 31.4742 10.9375 31.1718 10.9375Z" fill="#3A3847"/>
<path d="M31.1725 14.2187C31.1635 14.2187 31.1538 14.2187 31.1447 14.2182L9.2698 13.1244C8.96798 13.109 8.73577 12.8526 8.75068 12.5509C8.76559 12.2492 9.01667 12.0018 9.32423 12.0318L31.1993 13.1255C31.5011 13.141 31.7333 13.3974 31.7183 13.6991C31.7034 13.9917 31.462 14.2187 31.1725 14.2187Z" fill="#3A3847"/>
<path d="M9.29633 13.125C9.214 13.125 9.13086 13.1063 9.05222 13.0673C8.78199 12.9322 8.67259 12.6037 8.80757 12.3335L9.90133 10.146C10.037 9.87575 10.3644 9.76689 10.6352 9.90132C10.9054 10.0364 11.0148 10.3649 10.8797 10.6351L9.78591 12.8227C9.69005 13.0144 9.49722 13.125 9.29633 13.125Z" fill="#3A3847"/>
<path d="M59.6093 10.9375H38.8281C38.5259 10.9375 38.2812 10.6929 38.2812 10.3906C38.2812 10.0884 38.5259 9.84375 38.8281 9.84375H59.6093C59.9117 9.84375 60.1562 10.0884 60.1562 10.3906C60.1562 10.6929 59.9117 10.9375 59.6093 10.9375Z" fill="#3A3847"/>
<path d="M38.8281 14.2187C38.5376 14.2187 38.2961 13.9917 38.2812 13.6991C38.2663 13.3973 38.4992 13.141 38.8003 13.1255L60.6752 12.0318C60.9593 11.9987 61.2328 12.2492 61.2499 12.5509C61.2648 12.8527 61.0319 13.109 60.7308 13.1244L38.8558 14.2182C38.8463 14.2187 38.8367 14.2187 38.8281 14.2187Z" fill="#3A3847"/>
<path d="M60.7031 13.125C60.5023 13.125 60.3101 13.0144 60.2139 12.8228L59.1202 10.6352C58.9856 10.365 59.0944 10.0365 59.3648 9.90141C59.635 9.76684 59.9628 9.8757 60.0985 10.1461L61.1923 12.3336C61.3268 12.6038 61.218 12.9322 60.9476 13.0674C60.8698 13.1063 60.7865 13.125 60.7031 13.125Z" fill="#3A3847"/>
<path d="M10.3908 52.4999C4.6614 52.4999 0.000244141 47.8386 0.000244141 42.1094C0.000244141 41.807 0.244899 41.5625 0.547128 41.5625C0.849356 41.5625 1.09401 41.807 1.09401 42.1094C1.09401 47.2363 5.26449 51.4061 10.3908 51.4061C15.5172 51.4061 19.6876 47.2363 19.6876 42.1094C19.6876 41.807 19.9323 41.5625 20.2345 41.5625C20.5368 41.5625 20.7814 41.807 20.7814 42.1094C20.7813 47.8386 16.1201 52.4999 10.3908 52.4999Z" fill="#3A3847"/>
<path d="M20.2344 42.6561H0.546884C0.244655 42.6561 0 42.4116 0 42.1094C0 41.807 0.244655 41.5625 0.546884 41.5625H20.2343C20.5365 41.5625 20.7812 41.807 20.7812 42.1094C20.7812 42.4116 20.5366 42.6561 20.2344 42.6561Z" fill="#3A3847"/>
<path d="M36.6408 18.5938C36.3384 18.5938 36.0938 18.3491 36.0938 18.0469V15.8594C36.0938 15.5572 36.3384 15.3125 36.6408 15.3125C36.943 15.3125 37.1875 15.5572 37.1875 15.8594V18.0469C37.1875 18.3493 36.943 18.5938 36.6408 18.5938Z" fill="#3A3847"/>
<path d="M33.3594 18.5938C33.0572 18.5938 32.8125 18.3491 32.8125 18.0469V15.8594C32.8125 15.5572 33.0572 15.3125 33.3594 15.3125C33.6616 15.3125 33.9063 15.5572 33.9063 15.8594V18.0469C33.9063 18.3493 33.6616 18.5938 33.3594 18.5938Z" fill="#3A3847"/>
<path d="M37.7344 19.6875C36.8298 19.6875 36.0938 18.9515 36.0938 18.0469C36.0938 17.7447 36.3384 17.5 36.6408 17.5C36.943 17.5 37.1875 17.7447 37.1875 18.0469C37.1875 18.3487 37.4333 18.5938 37.7344 18.5938C38.0368 18.5938 38.2813 18.8384 38.2813 19.1407C38.2813 19.4429 38.0368 19.6875 37.7344 19.6875Z" fill="#3A3847"/>
<path d="M32.2656 19.6875C31.9634 19.6875 31.7188 19.4429 31.7188 19.1407C31.7188 18.8384 31.9634 18.5938 32.2656 18.5938C32.5675 18.5938 32.8125 18.3487 32.8125 18.0469C32.8125 17.7447 33.0572 17.5 33.3594 17.5C33.6616 17.5 33.9063 17.7447 33.9063 18.0469C33.9063 18.9515 33.1704 19.6875 32.2656 19.6875Z" fill="#3A3847"/>
<path d="M33.3592 22.9688C33.0569 22.9688 32.8123 22.7243 32.8123 22.4219C32.8123 21.5173 32.0764 20.7813 31.1716 20.7813C30.8694 20.7813 30.6248 20.5366 30.6248 20.2344C30.6248 19.932 30.8694 19.6875 31.1716 19.6875C32.6792 19.6875 33.9061 20.9142 33.9061 22.4218C33.9061 22.7243 33.6614 22.9688 33.3592 22.9688Z" fill="#3A3847"/>
<path d="M36.6408 22.9687C36.3384 22.9687 36.0938 22.7241 36.0938 22.4218C36.0938 20.9142 37.32 19.6875 38.8282 19.6875C39.1304 19.6875 39.375 19.932 39.375 20.2344C39.375 20.5366 39.1304 20.7813 38.8282 20.7813C37.9235 20.7813 37.1875 21.5171 37.1875 22.4219C37.1875 22.7241 36.943 22.9687 36.6408 22.9687Z" fill="#3A3847"/>
<path d="M38.8279 20.7813H31.1716C30.8694 20.7813 30.6248 20.5366 30.6248 20.2344C30.6248 19.932 30.8694 19.6875 31.1716 19.6875H38.8279C39.1301 19.6875 39.3748 19.932 39.3748 20.2344C39.3748 20.5366 39.1301 20.7813 38.8279 20.7813Z" fill="#3A3847"/>
<path d="M32.2661 49.219C32.2581 49.219 32.2507 49.219 32.2426 49.219C31.9409 49.2061 31.7065 48.9508 31.7192 48.6484L32.813 22.3991C32.8259 22.0974 33.0919 21.8667 33.3823 21.8757C33.6841 21.8879 33.9185 22.1434 33.9057 22.4451L32.8119 48.6955C32.7996 48.9881 32.5578 49.219 32.2661 49.219Z" fill="#3A3847"/>
<path d="M37.7344 49.2189C37.4417 49.2189 37.2003 48.9881 37.1875 48.6954L36.0937 22.445C36.0814 22.1433 36.316 21.888 36.6172 21.8757C36.927 21.8672 37.1746 22.0974 37.1875 22.3991L38.2813 48.6484C38.2941 48.9508 38.059 49.2061 37.7579 49.2189C37.7494 49.2189 37.7419 49.2189 37.7344 49.2189Z" fill="#3A3847"/>
<path d="M31.1717 50.3127C31.0318 50.3127 30.8919 50.2592 30.785 50.1526C30.5714 49.939 30.5714 49.5928 30.785 49.3792L31.8787 48.2855C32.0923 48.0718 32.4385 48.0718 32.6521 48.2855C32.8657 48.4991 32.8657 48.8452 32.6521 49.0588L31.5583 50.1526C31.4516 50.2592 31.3116 50.3127 31.1717 50.3127Z" fill="#3A3847"/>
<path d="M32.2658 51.4062C32.1259 51.4062 31.986 51.3527 31.8792 51.2459L30.7855 50.1523C30.5718 49.9387 30.5718 49.5926 30.7855 49.379C30.9991 49.1653 31.3452 49.1653 31.5588 49.379L32.6526 50.4727C32.8662 50.6863 32.8662 51.0325 32.6526 51.2459C32.5458 51.3527 32.4057 51.4062 32.2658 51.4062Z" fill="#3A3847"/>
<path d="M38.8281 50.3127C38.6882 50.3127 38.5483 50.2592 38.4415 50.1526L37.3477 49.0588C37.1341 48.8452 37.1341 48.4991 37.3477 48.2855C37.5613 48.0718 37.9075 48.0718 38.1209 48.2855L39.2147 49.3792C39.4283 49.5928 39.4283 49.939 39.2147 50.1526C39.1079 50.2592 38.9681 50.3127 38.8281 50.3127Z" fill="#3A3847"/>
<path d="M37.7343 51.4062C37.5946 51.4062 37.4545 51.3527 37.3477 51.2459C37.1341 51.0323 37.1341 50.6862 37.3477 50.4727L38.4415 49.379C38.6551 49.1653 39.0012 49.1653 39.2147 49.379C39.4283 49.5926 39.4283 49.9387 39.2147 50.1523L38.1209 51.2459C38.0143 51.3527 37.8744 51.4062 37.7343 51.4062Z" fill="#3A3847"/>
<path d="M32.2656 53.5938C31.9634 53.5938 31.7188 53.3491 31.7188 53.0469V50.8594C31.7188 50.5572 31.9634 50.3125 32.2656 50.3125C32.568 50.3125 32.8125 50.5572 32.8125 50.8594V53.0469C32.8125 53.3491 32.568 53.5938 32.2656 53.5938Z" fill="#3A3847"/>
<path d="M37.7344 53.5938C37.4322 53.5938 37.1875 53.3491 37.1875 53.0469V50.8594C37.1875 50.5572 37.4322 50.3125 37.7344 50.3125C38.0367 50.3125 38.2813 50.5572 38.2813 50.8594V53.0469C38.2813 53.3491 38.0367 53.5938 37.7344 53.5938Z" fill="#3A3847"/>
<path d="M38.8279 54.6874H31.1716C30.8694 54.6874 30.6248 54.4429 30.6248 54.1406C30.6248 53.8383 30.8694 53.5938 31.1716 53.5938H38.8279C39.1301 53.5938 39.3748 53.8383 39.3748 54.1406C39.3748 54.4429 39.1301 54.6874 38.8279 54.6874Z" fill="#3A3847"/>
<path d="M32.2656 56.8749C31.9634 56.8749 31.7188 56.6303 31.7188 56.328V54.1406C31.7188 53.8383 31.9634 53.5938 32.2656 53.5938C32.568 53.5938 32.8125 53.8383 32.8125 54.1406V56.328C32.8125 56.6303 32.568 56.8749 32.2656 56.8749Z" fill="#3A3847"/>
<path d="M37.7344 56.8749C37.4322 56.8749 37.1875 56.6303 37.1875 56.328V54.1406C37.1875 53.8383 37.4322 53.5938 37.7344 53.5938C38.0367 53.5938 38.2813 53.8383 38.2813 54.1406V56.328C38.2813 56.6303 38.0367 56.8749 37.7344 56.8749Z" fill="#3A3847"/>
<path d="M39.922 57.9685H30.0784C29.776 57.9685 29.5315 57.7239 29.5315 57.4216C29.5315 57.1194 29.776 56.8748 30.0784 56.8748H39.922C40.2242 56.8748 40.4689 57.1194 40.4689 57.4216C40.4689 57.7239 40.2242 57.9685 39.922 57.9685Z" fill="#3A3847"/>
<path d="M39.9216 61.2497C39.6194 61.2497 39.3748 61.0052 39.3748 60.7028V57.4216C39.3748 57.1194 39.6194 56.8748 39.9216 56.8748C40.2239 56.8748 40.4685 57.1194 40.4685 57.4216V60.7028C40.4685 61.0052 40.2239 61.2497 39.9216 61.2497Z" fill="#3A3847"/>
<path d="M30.0784 61.2497C29.776 61.2497 29.5315 61.0052 29.5315 60.7028V57.4216C29.5315 57.1194 29.776 56.8748 30.0784 56.8748C30.3806 56.8748 30.6253 57.1194 30.6253 57.4216V60.7028C30.6251 61.0052 30.3806 61.2497 30.0784 61.2497Z" fill="#3A3847"/>
<path d="M28.9844 59.0623H18.0469C17.7447 59.0623 17.5 58.8176 17.5 58.5154C17.5 58.213 17.7447 57.9685 18.0469 57.9685H28.9844C29.2866 57.9685 29.5313 58.213 29.5313 58.5154C29.5313 58.8176 29.2866 59.0623 28.9844 59.0623Z" fill="#3A3847"/>
<path d="M51.9532 59.0623H41.0156C40.7133 59.0623 40.4688 58.8176 40.4688 58.5154C40.4688 58.213 40.7133 57.9685 41.0156 57.9685H51.9532C52.2554 57.9685 52.5001 58.213 52.5001 58.5154C52.5001 58.8176 52.2554 59.0623 51.9532 59.0623Z" fill="#3A3847"/>
<path d="M18.0469 67.8124C17.7447 67.8124 17.5 67.5677 17.5 67.2655V58.5156C17.5 58.2133 17.7447 57.9688 18.0469 57.9688C18.3491 57.9688 18.5938 58.2133 18.5938 58.5156V67.2655C18.5938 67.5676 18.3491 67.8124 18.0469 67.8124Z" fill="#3A3847"/>
<path d="M51.9531 67.8123H18.0469C17.7447 67.8123 17.5 67.5676 17.5 67.2654C17.5 66.9632 17.7447 66.7185 18.0469 66.7185H51.9531C52.2553 66.7185 52.5 66.9632 52.5 67.2654C52.5 67.5676 52.2553 67.8123 51.9531 67.8123Z" fill="#3A3847"/>
<path d="M51.9531 67.8124C51.6508 67.8124 51.4062 67.5677 51.4062 67.2655V58.5156C51.4062 58.2133 51.6508 57.9688 51.9531 57.9688C52.2554 57.9688 52.5 58.2133 52.5 58.5156V67.2655C52.5 67.5676 52.2554 67.8124 51.9531 67.8124Z" fill="#3A3847"/>
<path d="M19.1406 69.9998C18.8383 69.9998 18.5938 69.7551 18.5938 69.4529V68.4253C18.5938 68.122 18.8383 67.8784 19.1406 67.8784C19.4429 67.8784 19.6875 68.122 19.6875 68.4253V69.4529C19.6875 69.7551 19.4429 69.9998 19.1406 69.9998Z" fill="#3A3847"/>
<path d="M23.5156 70H19.1406C18.8383 70 18.5938 69.7554 18.5938 69.4531C18.5938 69.1508 18.8383 68.9062 19.1406 68.9062H23.5156C23.8178 68.9062 24.0624 69.1508 24.0624 69.4531C24.0624 69.7554 23.8178 70 23.5156 70Z" fill="#3A3847"/>
<path d="M23.5156 70C23.2134 70 22.9688 69.7554 22.9688 69.4532V68.3594C22.9688 68.0572 23.2134 67.8125 23.5156 67.8125C23.8179 67.8125 24.0625 68.0572 24.0625 68.3594V69.4532C24.0625 69.7554 23.8179 70 23.5156 70Z" fill="#3A3847"/>
<path d="M46.4846 69.9998C46.1823 69.9998 45.9377 69.7551 45.9377 69.4529V68.4253C45.9377 68.122 46.1823 67.8784 46.4846 67.8784C46.7869 67.8784 47.0314 68.122 47.0314 68.4253V69.4529C47.0314 69.7551 46.7869 69.9998 46.4846 69.9998Z" fill="#3A3847"/>
<path d="M50.8596 70H46.4846C46.1823 70 45.9377 69.7554 45.9377 69.4531C45.9377 69.1508 46.1823 68.9062 46.4846 68.9062H50.8596C51.1618 68.9062 51.4064 69.1508 51.4064 69.4531C51.4064 69.7554 51.1618 70 50.8596 70Z" fill="#3A3847"/>
<path d="M50.8594 70C50.5572 70 50.3125 69.7554 50.3125 69.4532V68.3594C50.3125 68.0572 50.5572 67.8125 50.8594 67.8125C51.1616 67.8125 51.4063 68.0572 51.4063 68.3594V69.4532C51.4063 69.7554 51.1616 70 50.8594 70Z" fill="#3A3847"/>
<path d="M59.6093 52.4999C53.8799 52.4999 49.2188 47.8386 49.2188 42.1094C49.2188 41.807 49.4634 41.5625 49.7656 41.5625C50.0679 41.5625 50.3125 41.807 50.3125 42.1094C50.3125 47.2363 54.4825 51.4061 59.6093 51.4061C64.7362 51.4061 68.906 47.2363 68.906 42.1094C68.906 41.807 69.1507 41.5625 69.453 41.5625C69.7553 41.5625 69.9998 41.807 69.9998 42.1094C69.9999 47.8386 65.3388 52.4999 59.6093 52.4999Z" fill="#3A3847"/>
<path d="M69.4532 42.6561H49.7656C49.4634 42.6561 49.2188 42.4116 49.2188 42.1094C49.2188 41.807 49.4634 41.5625 49.7656 41.5625H69.4532C69.7554 41.5625 69.9999 41.807 69.9999 42.1094C69.9999 42.4116 69.7554 42.6561 69.4532 42.6561Z" fill="#3A3847"/>
<path d="M10.3906 9.8438C9.48602 9.8438 8.75 9.10792 8.75 8.20315C8.75 7.29838 9.48588 6.5625 10.3906 6.5625C11.2954 6.5625 12.0313 7.29852 12.0313 8.20315C12.0313 9.10779 11.2954 9.8438 10.3906 9.8438ZM10.3906 7.6564C10.089 7.6564 9.84377 7.90147 9.84377 8.20329C9.84377 8.50497 10.089 8.75017 10.3906 8.75017C10.6925 8.75017 10.9375 8.50497 10.9375 8.20329C10.9375 7.90147 10.6923 7.6564 10.3906 7.6564Z" fill="#3A3847"/>
<path d="M59.6092 9.8438C58.7045 9.8438 57.9685 9.10792 57.9685 8.20315C57.9685 7.29838 58.7045 6.5625 59.6092 6.5625C60.5139 6.5625 61.2498 7.29852 61.2498 8.20315C61.2498 9.10779 60.5139 9.8438 59.6092 9.8438ZM59.6092 7.6564C59.308 7.6564 59.0623 7.90147 59.0623 8.20329C59.0623 8.50497 59.308 8.75017 59.6092 8.75017C59.9104 8.75017 60.156 8.50497 60.156 8.20329C60.156 7.90147 59.9104 7.6564 59.6092 7.6564Z" fill="#3A3847"/>
</svg>
